<svg width="16" height="16" viewBox="0 0 16 16" fill="none" xmlns="http://www.w3.org/2000/svg">
<g id="Add">
<path id="Vector" d="M15 7.99966C15 8.44726 14.6399 8.80736 14.1923 8.80736H8.80769V14.192C8.80769 14.6379 8.44591 15 8 15C7.55409 15 7.19231 14.6396 7.19231 14.192V8.80736H1.80769C1.36178 8.80736 1 8.44591 1 8C1 7.55543 1.36178 7.19197 1.80769 7.19197H7.19231V1.80736C7.19231 1.36144 7.55409 1 8 1C8.44591 1 8.80769 1.36144 8.80769 1.80736V7.19197H14.1923C14.6399 7.19197 15 7.55543 15 7.99966Z" fill="white"/>
</g>
</svg>
