<svg width="75" height="14" viewBox="0 0 75 14" fill="none" xmlns="http://www.w3.org/2000/svg">
<path fill-rule="evenodd" clip-rule="evenodd" d="M48.6425 1.95046C48.7847 1.95046 49.0352 1.98567 49.0352 1.75635C49.0352 1.57556 48.8917 1.55238 48.7385 1.55238H48.4288V1.95046H48.6425ZM49.1651 2.57613H48.9988L48.6789 2.05738H48.4279V2.57613H48.2862V1.45489H48.7724C48.8794 1.45489 48.962 1.46864 49.0458 1.51502C49.1168 1.55238 49.1642 1.64943 49.1642 1.75635C49.1642 1.98567 49.0094 2.05738 48.8316 2.05738L49.1651 2.57613ZM49.521 2.01058C49.5198 1.78078 49.4293 1.56076 49.2691 1.39827C49.109 1.23578 48.8922 1.14394 48.6657 1.1427C48.1905 1.1427 47.7885 1.52919 47.7885 2.01058C47.7885 2.50399 48.1905 2.90035 48.6657 2.90035C49.1291 2.90035 49.521 2.50399 49.521 2.01058ZM47.6819 2.01058C47.6818 1.87985 47.7072 1.75041 47.7568 1.62974C47.8063 1.50908 47.879 1.3996 47.9705 1.30764C48.0621 1.21569 48.1707 1.1431 48.2901 1.09407C48.4095 1.04504 48.5374 1.02055 48.6662 1.02203C49.2133 1.02203 49.6517 1.46864 49.6517 2.01058C49.6517 2.56454 49.2133 3.02145 48.6662 3.02145C48.1084 3.02102 47.6819 2.56411 47.6819 2.01058ZM73.3548 1.95046C73.4983 1.95046 73.7471 1.98567 73.7471 1.75635C73.7471 1.57556 73.5926 1.55238 73.4619 1.55238H73.142V1.95046H73.3548ZM73.8656 2.57613H73.7107L73.3798 2.05738H73.142V2.57613H73.012V1.45489H73.4868C73.5808 1.45489 73.6646 1.46864 73.7585 1.51502C73.8427 1.55238 73.8774 1.64943 73.8774 1.75635C73.8774 1.98567 73.7242 2.05738 73.533 2.05738L73.8656 2.57613ZM74.2333 2.01058C74.2333 1.52876 73.8541 1.1427 73.3679 1.1427C72.8931 1.1427 72.5123 1.52919 72.5123 2.01058C72.5123 2.50399 72.8931 2.90035 73.3679 2.90035C73.8541 2.90035 74.2333 2.50399 74.2333 2.01058ZM72.3938 2.01058C72.3938 1.46864 72.8085 1.02203 73.3679 1.02203C73.9134 1.02203 74.3522 1.46864 74.3522 2.01058C74.3522 2.56454 73.9134 3.02145 73.3679 3.02145C72.8089 3.02102 72.3938 2.56411 72.3938 2.01058ZM14.6729 11.2003C14.3311 11.2016 13.9925 11.1343 13.6765 11.0022C13.3605 10.8701 13.0734 10.6758 12.8317 10.4306C12.59 10.1854 12.3985 9.89409 12.2683 9.57345C12.1381 9.2528 12.0717 8.90917 12.0729 8.56236C12.0727 8.2159 12.1399 7.87279 12.2705 7.55268C12.4011 7.23257 12.5926 6.94173 12.8341 6.6968C13.0756 6.45187 13.3623 6.25766 13.6778 6.12527C13.9933 5.99288 14.3314 5.92491 14.6729 5.92524C15.0141 5.92507 15.3521 5.99318 15.6674 6.12565C15.9827 6.25813 16.2692 6.45239 16.5105 6.69731C16.7518 6.94224 16.9431 7.23303 17.0735 7.55305C17.204 7.87307 17.271 8.21604 17.2707 8.56236C17.272 8.90901 17.2057 9.25249 17.0756 9.57302C16.9455 9.89355 16.7542 10.1848 16.5128 10.43C16.2713 10.6752 15.9844 10.8695 15.6687 11.0017C15.3529 11.1339 15.0144 11.2014 14.6729 11.2003ZM4.91495 11.2003C3.47913 11.2003 2.32811 10.0327 2.32811 8.56236C2.32811 7.10445 3.47913 5.92524 4.91495 5.92524C6.35077 5.92524 7.51491 7.10445 7.51491 8.56236C7.51597 8.90913 7.44945 9.25268 7.31916 9.57325C7.18887 9.89381 6.99739 10.1851 6.75574 10.4303C6.5141 10.6754 6.22706 10.8697 5.91114 11.0019C5.59522 11.134 5.25666 11.2015 4.91495 11.2003ZM37.6273 11.2003C36.1915 11.2003 35.0405 10.0327 35.0405 8.56236C35.0405 7.10445 36.1915 5.92524 37.6273 5.92524C39.0517 5.92524 40.2154 7.10445 40.2154 8.56236C40.2169 8.90822 40.151 9.25097 40.0216 9.57093C39.8922 9.89089 39.7018 10.1818 39.4613 10.4269C39.2209 10.672 38.9351 10.8665 38.6203 10.9992C38.3056 11.1319 37.9682 11.2003 37.6273 11.2003ZM27.7641 11.2003C27.4221 11.2025 27.0831 11.1358 26.7667 11.004C26.4503 10.8722 26.1629 10.6779 25.921 10.4326C25.6792 10.1872 25.4877 9.8955 25.3578 9.57446C25.2279 9.25343 25.162 8.90941 25.1641 8.56236C25.1631 8.21566 25.2297 7.87217 25.36 7.55168C25.4903 7.23118 25.6818 6.94 25.9235 6.6949C26.1651 6.4498 26.4521 6.25562 26.768 6.12353C27.0839 5.99144 27.4224 5.92405 27.7641 5.92524C28.1054 5.92507 28.4435 5.99316 28.7589 6.12562C29.0743 6.25808 29.3609 6.45231 29.6023 6.69721C29.8437 6.94211 30.0352 7.23288 30.1658 7.55292C30.2965 7.87295 30.3637 8.21596 30.3636 8.56236C30.3647 8.90911 30.2982 9.25265 30.168 9.57322C30.0378 9.89378 29.8463 10.185 29.6047 10.4302C29.3631 10.6754 29.0761 10.8697 28.7602 11.0018C28.4443 11.134 28.1058 11.2015 27.7641 11.2003ZM17.2838 12.188C16.5285 12.7554 15.6126 13.0597 14.6729 13.0555C12.2261 13.0555 10.2448 11.044 10.2448 8.56236C10.2448 6.09272 12.2261 4.08171 14.6729 4.08171C15.6453 4.08171 16.5471 4.40593 17.2707 4.94829V1.25092H19.1944V12.9833H17.2838V12.188ZM48.1681 6.949C48.061 6.21296 47.4788 5.68434 46.5541 5.68434C46.0683 5.68434 45.0112 5.85181 45.0112 6.48994C45.0112 7.44199 46.6134 7.52572 47.0044 7.55106C49.5692 7.79154 50.3161 8.93597 50.3161 10.2848C50.3161 11.2854 49.8176 12.0309 49.1063 12.5612C48.5011 13.0065 47.2549 13.1869 46.4949 13.1869C44.8085 13.1869 43.1002 12.249 42.8742 10.1272H44.762C44.8678 11.1278 45.9007 11.5009 46.483 11.5009C47.5376 11.5009 48.2866 11.044 48.2866 10.5137C48.2866 9.67072 47.5151 9.4895 46.3988 9.36969C45.7713 9.29755 44.5703 9.07939 44.0726 8.65855C43.5158 8.21324 43.041 7.70651 43.041 6.83993C43.041 5.28582 44.2394 4.05766 46.6019 4.04435C48.5604 4.03275 50.044 5.21368 50.0901 6.93526L48.1681 6.949ZM7.52634 12.188C6.77106 12.7558 5.8549 13.0602 4.91495 13.0555C2.45844 13.0555 0.500009 11.044 0.500009 8.56236C0.498838 7.97366 0.612232 7.39051 0.833683 6.84639C1.05513 6.30226 1.38029 5.80786 1.79048 5.39156C2.20067 4.97527 2.68783 4.64526 3.22401 4.42048C3.76019 4.1957 4.33482 4.08058 4.91495 4.08171C5.88909 4.08171 6.79087 4.40593 7.52634 4.94829V4.0933H9.42553V12.9833H7.52634V12.188ZM20.5829 3.47922H22.4939V1.23975H20.5829V3.47922ZM22.4935 3.47922H20.5829H22.4935ZM20.5829 12.9833H22.4939V4.0933H20.5829V12.9833ZM22.4935 12.9833H20.5829H22.4935ZM40.2154 12.188C39.5028 12.7424 38.6015 13.0555 37.6273 13.0555C35.1823 13.0555 33.201 11.044 33.201 8.56236C33.201 6.09272 35.1823 4.08171 37.6273 4.08171C38.6015 4.08171 39.5033 4.40593 40.2154 4.94829V4.0933H42.1375V12.9833H40.2387L40.2154 12.188ZM30.3755 12.188C29.6514 12.7424 28.7382 13.0555 27.7641 13.0555C25.3308 13.0555 23.3373 11.044 23.3373 8.56236C23.3373 6.09272 25.3308 4.08171 27.7641 4.08171C28.7382 4.08171 29.64 4.40593 30.3755 4.94829V1.25092H32.2742V12.9833H30.3755V12.188ZM65.0822 7.55149C65.1897 5.44343 64.5711 3.12967 62.9093 0.878174C61.2953 2.98581 60.727 5.38331 60.8687 7.55149H65.0822ZM61.1176 9.22411C61.0462 8.91006 60.9868 8.59334 60.9394 8.27465H65.0111C64.9639 8.59333 64.9046 8.91005 64.8334 9.22411H61.1176ZM62.0671 11.6104C62.3286 12.0519 62.6305 12.4673 62.9689 12.8511C63.302 12.477 63.5986 12.0549 63.872 11.6104H62.0671ZM71.4324 7.56309C71.9071 6.56252 72.2406 5.443 72.3938 4.19035C69.6288 4.43169 67.4562 5.79169 65.9954 7.56309H71.4324ZM71.0642 8.27465C70.8755 8.61003 70.6719 8.91106 70.4595 9.22411L64.9147 9.20049C65.0932 8.90032 65.2714 8.56236 65.4737 8.27465H71.0642ZM68.8802 10.8873C69.2276 10.5995 69.5528 10.2853 69.8531 9.94727L56.0844 9.93567C56.3941 10.2852 56.7373 10.6099 57.0932 10.8993L68.8802 10.8873ZM64.0734 11.6104C63.9917 12.0106 63.9443 12.4172 63.9316 12.8257C65.2486 12.766 66.6137 12.3559 67.8485 11.6104H64.0734ZM54.8745 8.27465C55.0755 8.61003 55.2782 8.91106 55.5042 9.22411H61.0236C60.8687 8.90032 60.6787 8.58684 60.476 8.27465H54.8745ZM58.102 11.6104C59.3373 12.3559 60.6906 12.766 62.0079 12.8257C61.9927 12.418 61.949 12.0119 61.8771 11.6104H58.102ZM59.942 7.56309C58.4943 5.79126 56.3349 4.43126 53.5682 4.19035C53.7092 5.35666 54.0256 6.49412 54.5064 7.56309H59.942Z" fill="white"/>
</svg>
