<svg width="65" height="20" viewBox="0 0 65 20" fill="none" xmlns="http://www.w3.org/2000/svg">
<g clip-path="url(#clip0_1133_49919)">
<path fill-rule="evenodd" clip-rule="evenodd" d="M40.3391 15.4686C36.6212 18.2178 31.2132 19.6823 26.5489 19.6823C20.0143 19.6823 14.1557 17.2713 9.69413 13.2604C9.35613 12.9451 9.64908 12.5168 10.0772 12.7647C14.8767 15.5588 20.8029 17.2262 26.9319 17.2262C31.0555 17.2262 35.6071 16.37 39.7983 14.5898C40.429 14.342 40.9475 15.018 40.3391 15.4686H40.3391Z" fill="white"/>
<path fill-rule="evenodd" clip-rule="evenodd" d="M41.8931 13.6878C41.42 13.0795 38.7385 13.3949 37.5442 13.5526C37.1837 13.5977 37.1161 13.2823 37.4541 13.0569C39.5947 11.5472 43.0874 11.9978 43.493 12.4936C43.8985 12.9893 43.3803 16.5042 41.3745 18.1719C41.0591 18.4197 40.7661 18.2845 40.9015 17.9465C41.3523 16.8199 42.3663 14.3186 41.8931 13.6878Z" fill="white"/>
<path fill-rule="evenodd" clip-rule="evenodd" d="M37.6118 2.46684V1.00182C37.6093 0.953795 37.6168 0.905773 37.6341 0.86087C37.6513 0.815967 37.6777 0.775189 37.7118 0.741185C37.7458 0.70718 37.7865 0.680711 37.8314 0.663497C37.8763 0.646283 37.9244 0.63871 37.9724 0.641269H44.507C44.6054 0.639198 44.7006 0.675813 44.7723 0.743238C44.8439 0.810663 44.8862 0.903512 44.8901 1.00182V2.24114C44.8901 2.44394 44.7099 2.71419 44.3944 3.16503L41.0144 7.98714C42.2763 7.96458 43.6059 8.14482 44.7324 8.77556C44.9803 8.91076 45.0478 9.13611 45.0704 9.3389V10.8937C45.0704 11.119 44.8451 11.3667 44.5974 11.2317C42.5919 10.1726 39.9105 10.0599 37.7023 11.2542C37.4769 11.3669 37.2292 11.1416 37.2292 10.9162V9.42919C37.2292 9.20384 37.2292 8.79846 37.4771 8.43777L41.3978 2.82704H37.9949C37.8966 2.82911 37.8014 2.79255 37.7298 2.72519C37.6582 2.65784 37.6158 2.56508 37.6118 2.46684ZM13.7944 11.5473H11.8115C11.7226 11.5383 11.6392 11.5004 11.574 11.4393C11.5089 11.3782 11.4656 11.2974 11.4509 11.2093V1.02437C11.4548 0.92608 11.4971 0.833241 11.5688 0.765818C11.6404 0.698395 11.7356 0.661772 11.834 0.663825H13.6817C13.7731 0.665207 13.8606 0.700606 13.9273 0.763107C13.994 0.825608 14.035 0.91072 14.0422 1.00182V2.3313H14.0873C14.5603 1.04693 15.4843 0.438543 16.7011 0.438543C17.9404 0.438543 18.7291 1.04693 19.2699 2.3313C19.743 1.04693 20.8472 0.438543 22.0191 0.438543C22.8528 0.438543 23.7542 0.776534 24.3175 1.56523C24.9483 2.42145 24.8133 3.66078 24.8133 4.76491V11.2094C24.8094 11.3077 24.7671 11.4005 24.6954 11.4679C24.6238 11.5354 24.5286 11.572 24.4302 11.5699H22.4696C22.2668 11.5474 22.1091 11.3897 22.1091 11.2094V5.80137C22.1091 5.37322 22.1541 4.29165 22.064 3.88606C21.9063 3.21008 21.4782 3.00728 20.8923 3.00728C20.6336 3.01465 20.3827 3.0975 20.1705 3.24563C19.9583 3.39377 19.7941 3.60072 19.698 3.84102C19.4952 4.35925 19.5178 5.21554 19.5178 5.80137V11.2094C19.5139 11.3077 19.4716 11.4005 19.3999 11.4679C19.3283 11.5354 19.2331 11.572 19.1347 11.5699H17.1518C16.949 11.5474 16.7913 11.3897 16.7913 11.2094V5.80137C16.7913 4.67468 16.9715 2.98472 15.5745 2.98472C14.1549 2.98472 14.2 4.60709 14.2 5.80137V11.2094C14.1858 11.3057 14.1366 11.3935 14.0618 11.4559C13.9869 11.5182 13.8917 11.5508 13.7944 11.5474V11.5473ZM50.5233 0.438543C53.4752 0.438543 55.075 2.96224 55.075 6.18447C55.075 9.29406 53.3175 11.7726 50.5233 11.7726C47.6391 11.7726 46.0618 9.24895 46.0618 6.09432C46.0392 2.91713 47.6391 0.438268 50.5233 0.438268V0.438543ZM50.5233 2.53409C49.0587 2.53409 48.9686 4.53956 48.9686 5.77888C48.9686 7.01821 48.946 9.6771 50.5008 9.6771C52.0331 9.6771 52.1232 7.53644 52.1232 6.22951C52.1232 5.37322 52.0782 4.33676 51.8302 3.52551C51.6049 2.80442 51.1543 2.53409 50.5233 2.53409ZM58.8831 11.5473H56.9002C56.6974 11.5247 56.5396 11.3671 56.5396 11.1867V0.979124C56.5521 0.886077 56.5976 0.800641 56.668 0.738538C56.7384 0.676436 56.8289 0.641845 56.9227 0.641132H58.7705C58.8542 0.644087 58.9348 0.674289 58.9999 0.727157C59.0649 0.780025 59.111 0.852674 59.131 0.934081V2.48884H59.1761C59.7394 1.09176 60.5055 0.438337 61.8801 0.438337C62.7588 0.438337 63.6376 0.753705 64.201 1.63262C64.7192 2.4438 64.7192 3.81832 64.7192 4.80981V11.2317C64.7056 11.3223 64.6589 11.4047 64.5882 11.4629C64.5174 11.5212 64.4276 11.5512 64.3361 11.5471H62.353C62.1728 11.5245 62.015 11.3894 61.9925 11.2317V5.68873C61.9925 4.56204 62.1277 2.93954 60.7532 2.93954C60.2801 2.93954 59.8293 3.25491 59.604 3.75073C59.3336 4.38146 59.2886 4.99005 59.2886 5.68859V11.187C59.276 11.2859 59.228 11.377 59.1534 11.4433C59.0789 11.5096 58.9828 11.5466 58.883 11.5475L58.8831 11.5473ZM32.4068 6.68022C32.4068 7.44635 32.4294 8.09978 32.0463 8.79866C31.7309 9.36201 31.2351 9.7 30.6718 9.7C29.9056 9.7 29.455 9.11417 29.455 8.25788C29.455 6.56792 30.9647 6.25241 32.4068 6.25241V6.68022ZM34.4123 11.5248C34.3481 11.5809 34.2679 11.6154 34.183 11.6235C34.0982 11.6315 34.0129 11.6128 33.9392 11.5699C33.2858 11.0291 33.1508 10.7587 32.7901 10.2404C31.7085 11.3442 30.9198 11.6825 29.5228 11.6825C27.8553 11.6825 26.5484 10.646 26.5484 8.59546C26.5484 6.9731 27.4272 5.89152 28.6668 5.35067C29.7484 4.87762 31.2583 4.78732 32.4073 4.65213V4.40429C32.4073 3.93124 32.4524 3.36776 32.1595 2.96217C31.9116 2.60162 31.4609 2.44394 31.0557 2.44394C30.2895 2.44394 29.6136 2.82697 29.4558 3.63822C29.4108 3.81846 29.2981 3.99877 29.1178 3.99877L27.2025 3.79597C27.0448 3.75093 26.8645 3.63829 26.9096 3.39038C27.3602 1.04693 29.4558 0.348389 31.3486 0.348389C32.3175 0.348389 33.5793 0.596227 34.3455 1.33981C35.3144 2.24114 35.2242 3.45826 35.2242 4.76484V7.85187C35.2242 8.77576 35.6073 9.18135 35.9678 9.69959C36.103 9.87983 36.1255 10.1052 35.9678 10.2178C35.5397 10.5558 34.8186 11.1868 34.413 11.5247L34.4123 11.5248ZM6.38099 6.68022C6.38099 7.44635 6.40354 8.09978 6.02044 8.79866C5.70507 9.36201 5.20926 9.7 4.64592 9.7C3.87978 9.7 3.42915 9.11417 3.42915 8.25788C3.42915 6.56792 4.93887 6.25241 6.38099 6.25241V6.68022ZM8.3639 11.5248C8.29967 11.5809 8.21948 11.6154 8.13462 11.6235C8.04975 11.6315 7.96449 11.6128 7.89084 11.5699C7.23742 11.0291 7.10243 10.7587 6.74167 10.2404C5.6601 11.3442 4.87141 11.6825 3.4744 11.6825C1.80692 11.6825 0.5 10.646 0.5 8.59546C0.5 6.9731 1.37878 5.89152 2.61845 5.35067C3.70002 4.87762 5.20995 4.78732 6.35891 4.65213V4.40429C6.35891 3.93124 6.40395 3.36776 6.11107 2.96217C5.86324 2.60162 5.41254 2.44394 5.00729 2.44394C4.24115 2.44394 3.56517 2.82697 3.40741 3.63822C3.36237 3.81846 3.24973 3.99877 3.06942 3.99877L1.15411 3.79597C0.99643 3.75093 0.816122 3.63829 0.861164 3.39038C1.3118 1.04693 3.40741 0.348389 5.30017 0.348389C6.2691 0.348389 7.53091 0.596227 8.29705 1.33981C9.26598 2.24114 9.17583 3.45826 9.17583 4.76484V7.85187C9.17583 8.77576 9.55886 9.18135 9.91941 9.69959C10.0546 9.87983 10.0771 10.1052 9.91941 10.2178C9.49127 10.5558 8.77024 11.1868 8.36465 11.5247L8.3639 11.5248Z" fill="white"/>
</g>
<defs>
<clipPath id="clip0_1133_49919">
<rect width="64.2193" height="19.3334" fill="white" transform="translate(0.5 0.351562)"/>
</clipPath>
</defs>
</svg>
