<svg width="16" height="16" viewBox="0 0 16 16" fill="none" xmlns="http://www.w3.org/2000/svg">
<path d="M3.33332 3.60713V4.36048L8.2333 8.10964C8.50309 8.31556 8.83121 8.42856 9.16663 8.42856C9.50204 8.42856 9.83016 8.31807 10.1 8.10964L14.9999 4.36048V3.60713C14.9999 3.52678 14.9951 3.44893 14.9829 3.3736L9.63572 7.46679C9.49961 7.56974 9.33433 7.6275 9.16663 7.6275C8.99892 7.6275 8.83364 7.57226 8.69753 7.46679L3.35034 3.3736C3.34061 3.44893 3.33332 3.52929 3.33332 3.60713ZM2.16666 4.20981C2.16666 3.87583 1.90659 3.60713 1.58333 3.60713C1.26007 3.60713 1 3.87583 1 4.20981V9.83481C1 11.7207 2.4802 13.25 4.30554 13.25H12.0833C12.4065 13.25 12.6666 12.9813 12.6666 12.6473C12.6666 12.3133 12.4065 12.0446 12.0833 12.0446H4.30554C3.12429 12.0446 2.16666 11.0552 2.16666 9.83481V4.20981Z" fill="#6B7280"/>
<path opacity="0.4" d="M3.35039 3.3736L8.69758 7.46679C8.83369 7.56975 8.99897 7.62751 9.16668 7.62751C9.33439 7.62751 9.49966 7.57226 9.63577 7.46679L14.983 3.3736C14.8736 2.59514 14.2271 2 13.4444 2H4.88892C4.10629 2 3.45976 2.59514 3.35039 3.3736ZM15 4.36049L10.1 8.10965C9.83022 8.31808 9.50209 8.42857 9.16668 8.42857C8.83126 8.42857 8.50314 8.31808 8.23335 8.10965L3.33337 4.36049V9.23214C3.33337 10.1186 4.03094 10.8393 4.88892 10.8393H13.4444C14.3024 10.8393 15 10.1186 15 9.23214V4.36049Z" fill="#9CA3AF"/>
</svg>
