<svg width="106" height="20" viewBox="0 0 106 20" fill="none" xmlns="http://www.w3.org/2000/svg">
<rect y="0.5" width="30" height="19" rx="3" fill="#00579F"/>
<path d="M13.48 13.2867H11.6331L12.7883 6.73438H14.6351L13.48 13.2867Z" fill="white"/>
<path d="M20.1754 6.89468C19.8111 6.7621 19.2333 6.61572 18.5188 6.61572C16.6949 6.61572 15.4105 7.50791 15.4026 8.78346C15.3874 9.72457 16.3222 10.2473 17.0213 10.5611C17.7359 10.8817 17.9788 11.091 17.9788 11.3768C17.9715 11.8158 17.4014 12.0181 16.8696 12.0181C16.1322 12.0181 15.7371 11.9138 15.1367 11.6696L14.8935 11.5649L14.635 13.0358C15.0682 13.2168 15.8663 13.3774 16.6949 13.3845C18.6328 13.3845 19.8945 12.5061 19.9095 11.1468C19.9168 10.4009 19.4232 9.82935 18.3591 9.36232C17.7131 9.06252 17.3175 8.86036 17.3175 8.55361C17.3251 8.27474 17.6521 7.98911 18.3813 7.98911C18.9818 7.97512 19.4229 8.10752 19.7572 8.24L19.9242 8.30958L20.1754 6.89468Z" fill="white"/>
<path d="M22.6303 10.9654C22.7824 10.589 23.3676 9.13216 23.3676 9.13216C23.36 9.14615 23.5194 8.74879 23.6106 8.50485L23.7397 9.06944C23.7397 9.06944 24.0895 10.6378 24.1654 10.9654C23.8768 10.9654 22.9951 10.9654 22.6303 10.9654ZM24.9101 6.73438H23.4815C23.0409 6.73438 22.7062 6.85278 22.5161 7.27802L19.7727 13.2866H21.7107C21.7107 13.2866 22.0297 12.4779 22.0983 12.3037C22.3109 12.3037 24.1961 12.3037 24.4696 12.3037C24.5227 12.5338 24.69 13.2866 24.69 13.2866H26.4001L24.9101 6.73438Z" fill="white"/>
<path d="M10.0905 6.73438L8.28172 11.2024L8.08406 10.2963C7.74966 9.25065 6.70089 8.11462 5.53052 7.54976L7.1873 13.2798H9.14041L12.0435 6.73438H10.0905Z" fill="white"/>
<path d="M6.60207 6.73438H3.6305L3.6001 6.86677C5.91811 7.41051 7.45329 8.72118 8.08403 10.2965L7.43804 7.28516C7.33169 6.86667 7.00486 6.74818 6.60207 6.73438Z" fill="#FEBF06"/>
<rect x="38" y="0.5" width="30" height="19" rx="3" fill="#0F3560"/>
<path d="M55.6179 14.6695H50.3684V5.3335H55.6179V14.6695Z" fill="#FEBF06"/>
<path d="M50.7047 10.0007C50.7047 8.10688 51.6007 6.41988 52.9961 5.33272C51.9757 4.53773 50.6879 4.06323 49.2883 4.06323C45.9749 4.06323 43.2891 6.7215 43.2891 10.0007C43.2891 13.28 45.9749 15.9382 49.2883 15.9382C50.6879 15.9382 51.9757 15.4637 52.9961 14.6687C51.6007 13.5816 50.7047 11.8946 50.7047 10.0007Z" fill="#EF4770"/>
<path d="M62.6979 10.0007C62.6979 13.28 60.012 15.9382 56.6987 15.9382C55.2991 15.9382 54.0113 15.4637 52.9905 14.6687C54.3862 13.5816 55.2823 11.8946 55.2823 10.0007C55.2823 8.10688 54.3862 6.41988 52.9905 5.33272C54.0113 4.53773 55.2991 4.06323 56.6987 4.06323C60.012 4.06323 62.6979 6.7215 62.6979 10.0007Z" fill="#FEBF06"/>
<path d="M47.8035 10.0384C47.8035 9.77902 47.9752 9.56596 48.2558 9.56596C48.524 9.56596 48.705 9.76983 48.705 10.0384C48.705 10.3069 48.524 10.5108 48.2558 10.5108C47.9752 10.5108 47.8035 10.2977 47.8035 10.0384ZM49.0107 10.0384V9.3006H48.6864V9.47974C48.5836 9.34689 48.4276 9.2635 48.2155 9.2635C47.7974 9.2635 47.4696 9.58786 47.4696 10.0384C47.4696 10.4892 47.7974 10.8132 48.2155 10.8132C48.4276 10.8132 48.5836 10.7298 48.6864 10.597V10.7761H49.0107V10.0384ZM59.9665 10.0384C59.9665 9.77902 60.1383 9.56596 60.4189 9.56596C60.6874 9.56596 60.8681 9.76983 60.8681 10.0384C60.8681 10.3069 60.6874 10.5108 60.4189 10.5108C60.1383 10.5108 59.9665 10.2977 59.9665 10.0384ZM61.1741 10.0384V8.70806H60.8495V9.47974C60.7467 9.34689 60.5907 9.2635 60.3786 9.2635C59.9605 9.2635 59.6327 9.58786 59.6327 10.0384C59.6327 10.4892 59.9605 10.8132 60.3786 10.8132C60.5907 10.8132 60.7467 10.7298 60.8495 10.597V10.7761H61.1741V10.0384ZM53.035 9.55076C53.2439 9.55076 53.3782 9.68044 53.4124 9.90869H52.6387C52.6733 9.69563 52.804 9.55076 53.035 9.55076ZM53.0414 9.2635C52.6044 9.2635 52.2988 9.57832 52.2988 10.0384C52.2988 10.5076 52.6169 10.8132 53.0632 10.8132C53.2878 10.8132 53.4935 10.7578 53.6745 10.6065L53.5156 10.3687C53.3906 10.4673 53.2314 10.5231 53.0818 10.5231C52.8729 10.5231 52.6826 10.4274 52.6358 10.1617H53.7431C53.7463 10.1218 53.7495 10.0815 53.7495 10.0384C53.7463 9.57832 53.4592 9.2635 53.0414 9.2635ZM56.9562 10.0384C56.9562 9.77902 57.1279 9.56596 57.4086 9.56596C57.6767 9.56596 57.8578 9.76983 57.8578 10.0384C57.8578 10.3069 57.6767 10.5108 57.4086 10.5108C57.1279 10.5108 56.9562 10.2977 56.9562 10.0384ZM58.1634 10.0384V9.3006H57.8392V9.47974C57.736 9.34689 57.5803 9.2635 57.3682 9.2635C56.9501 9.2635 56.6224 9.58786 56.6224 10.0384C56.6224 10.4892 56.9501 10.8132 57.3682 10.8132C57.5803 10.8132 57.736 10.7298 57.8392 10.597V10.7761H58.1634V10.0384ZM55.1252 10.0384C55.1252 10.486 55.4401 10.8132 55.9207 10.8132C56.1453 10.8132 56.2949 10.7638 56.457 10.6373L56.3014 10.3779C56.1796 10.4645 56.0518 10.5108 55.9111 10.5108C55.6522 10.5076 55.4619 10.3224 55.4619 10.0384C55.4619 9.75429 55.6522 9.56914 55.9111 9.56596C56.0518 9.56596 56.1796 9.61224 56.3014 9.69881L56.457 9.43946C56.2949 9.31297 56.1453 9.2635 55.9207 9.2635C55.4401 9.2635 55.1252 9.59069 55.1252 10.0384ZM59.3053 9.2635C59.1182 9.2635 58.9964 9.35007 58.9121 9.47974V9.3006H58.5908V10.7761H58.9154V9.94897C58.9154 9.70482 59.0214 9.56914 59.2335 9.56914C59.2992 9.56914 59.3677 9.57832 59.4363 9.60624L59.5363 9.30378C59.4645 9.27587 59.371 9.2635 59.3053 9.2635ZM50.6142 9.41791C50.4582 9.31615 50.2432 9.2635 50.0061 9.2635C49.6284 9.2635 49.3852 9.44264 49.3852 9.73591C49.3852 9.97653 49.5662 10.1249 49.8997 10.1712L50.0529 10.1928C50.2307 10.2175 50.3146 10.2638 50.3146 10.3472C50.3146 10.4613 50.1961 10.5263 49.9747 10.5263C49.7501 10.5263 49.588 10.4553 49.4788 10.3719L49.3259 10.6217C49.5037 10.7514 49.7283 10.8132 49.9715 10.8132C50.4021 10.8132 50.6517 10.6125 50.6517 10.3316C50.6517 10.0723 50.4553 9.93661 50.1307 9.89032L49.9779 9.86841C49.8376 9.85004 49.7251 9.82248 49.7251 9.72355C49.7251 9.61542 49.8312 9.55076 50.009 9.55076C50.1993 9.55076 50.3835 9.62178 50.4739 9.67726L50.6142 9.41791ZM54.7974 9.2635C54.6103 9.2635 54.4886 9.35007 54.4047 9.47974V9.3006H54.0833V10.7761H54.4075V9.94897C54.4075 9.70482 54.5136 9.56914 54.7257 9.56914C54.7914 9.56914 54.8599 9.57832 54.9285 9.60624L55.0285 9.30378C54.9567 9.27587 54.8631 9.2635 54.7974 9.2635ZM52.0306 9.3006H51.5004V8.85293H51.1726V9.3006H50.8702V9.59387H51.1726V10.267C51.1726 10.6094 51.3069 10.8132 51.6904 10.8132C51.831 10.8132 51.9931 10.7701 52.096 10.6991L52.0024 10.4242C51.9057 10.4797 51.7996 10.5076 51.7153 10.5076C51.5532 10.5076 51.5004 10.4087 51.5004 10.2606V9.59387H52.0306V9.3006ZM47.1829 10.7761V9.85004C47.1829 9.5013 46.9583 9.26668 46.5962 9.2635C46.4059 9.26032 46.2096 9.31898 46.0721 9.52603C45.9693 9.36244 45.8072 9.2635 45.5794 9.2635C45.4201 9.2635 45.2644 9.30979 45.1427 9.48257V9.3006H44.8181V10.7761H45.1455V9.95816C45.1455 9.70199 45.2891 9.56596 45.5108 9.56596C45.7261 9.56596 45.835 9.70482 45.835 9.95498V10.7761H46.1628V9.95816C46.1628 9.70199 46.3124 9.56596 46.5277 9.56596C46.7491 9.56596 46.8551 9.70482 46.8551 9.95498V10.7761H47.1829Z" fill="white"/>
<rect x="76" y="0.5" width="30" height="19" rx="3" fill="#306FC8"/>
<mask id="mask0_1027_60066" style="mask-type:alpha" maskUnits="userSpaceOnUse" x="76" y="0" width="30" height="20">
<rect x="76" y="0.5" width="30" height="19" rx="3" fill="url(#paint0_linear_1027_60066)"/>
</mask>
<g mask="url(#mask0_1027_60066)">
<path d="M88.9839 14.4144V11.6484L87.6917 13.0106L88.9839 14.4144Z" fill="white"/>
<path d="M83.5681 11.9956V12.6182L85.4158 12.6144V13.3276H83.5681V14.0106H85.6395L86.6038 12.9993L85.6781 11.9956H83.5681Z" fill="white"/>
<path d="M91.4177 6.75424C91.5257 6.69386 91.5913 6.57311 91.5913 6.42595C91.5913 6.27879 91.5219 6.17313 91.4177 6.11653C91.3175 6.05993 91.167 6.05615 91.0166 6.05615H89.9751V6.82593H91.005C91.167 6.82593 91.302 6.81839 91.4177 6.75424Z" fill="white"/>
<path d="M77.5508 7.2976H78.7041L78.1255 5.92407L77.5508 7.2976Z" fill="white"/>
<path d="M90.928 11.9956H89.8286V12.8635H90.9202C91.2404 12.8635 91.441 12.7126 91.441 12.4145C91.4371 12.1164 91.2288 11.9956 90.928 11.9956Z" fill="white"/>
<path d="M77.7667 8.6976H78.4918L78.8197 9.47115H81.6548V8.8825L81.9094 9.47115H83.3752L83.6298 8.87495V9.47115H90.6733V8.21083H90.8122C90.9124 8.21083 90.9394 8.22215 90.9394 8.37686V9.47115H94.5808V9.17305C94.8701 9.32776 95.3252 9.47115 95.9347 9.47115H97.4661L97.7978 8.6976H98.523L98.8508 9.47115H101.794V8.73911L102.245 9.47115H104.61V4.65625H102.272V5.22227L101.937 4.65625H99.5336V5.22227L99.2404 4.65625H95.9926C95.4448 4.65625 94.9626 4.72795 94.5808 4.93171V4.65625H92.3435V4.93171C92.0812 4.72417 91.7533 4.65625 91.383 4.65625H83.1939L82.6385 5.89771L82.083 4.65625H79.5063V5.22227L79.2132 4.65625H77.0145L76 6.93918V9.47115H77.4388L77.7667 8.6976ZM94.7389 5.73923C95.0089 5.46377 95.441 5.33547 96.0234 5.33547H96.8296V6.07506H96.0388C95.7264 6.07506 95.5528 6.12034 95.387 6.2826C95.2404 6.42599 95.1401 6.70145 95.1401 7.0637C95.1401 7.4335 95.2134 7.69387 95.3792 7.87499C95.5027 8.01083 95.738 8.05234 95.9655 8.05234H96.3436L97.5316 5.33547H98.7891L100.22 8.60326V5.33547H101.509L102.99 7.73915V5.33547H103.858V8.79194H102.654L101.061 6.20336V8.79194H99.3446L99.0206 8.01838H97.2655L96.9415 8.79194H95.9617C95.549 8.79194 95.0282 8.6976 94.7351 8.40705C94.438 8.11272 94.2876 7.71651 94.2876 7.09012C94.2876 6.57693 94.3802 6.10902 94.7389 5.73923ZM93.0108 5.33547H93.8749V8.79194H93.0108V5.33547ZM89.1342 5.33547H91.0783C91.5065 5.33547 91.8228 5.35056 92.0928 5.5015C92.3628 5.65621 92.5287 5.88262 92.5287 6.26751C92.5287 6.81466 92.1507 7.09766 91.9269 7.18445C92.1121 7.25237 92.2702 7.3769 92.3435 7.47878C92.4631 7.64481 92.4824 7.8033 92.4824 8.10517V8.79194H91.6338V8.35422C91.6338 8.15045 91.6531 7.84858 91.4949 7.68632C91.3753 7.5618 91.1902 7.53538 90.8816 7.53538H89.9751V8.79194H89.1304V5.33547H89.1342ZM85.732 5.33547H88.5479V6.05619H86.5729V6.67881H88.4978V7.38822H86.5729V8.07121L88.5479 8.06744V8.78816H85.732V5.33547ZM76.9258 8.79194H76.0077L77.5159 5.33547H78.7734L80.2045 8.60326V5.33547H81.5854L82.6848 7.67877L83.6992 5.33547H85.1033V8.79194H84.2393V6.08638L83.0165 8.79194H82.2759L81.0492 6.08261V8.79194H79.3289L79.0049 8.01838H77.2498L76.9258 8.79194Z" fill="white"/>
<path d="M98.1411 5.92407L97.5664 7.2976H98.7159L98.1411 5.92407Z" fill="white"/>
<path d="M104.131 12.0748C104.043 12.1314 104.004 12.2144 104.004 12.3238C104.004 12.4521 104.081 12.5427 104.189 12.5804C104.274 12.6106 104.371 12.6182 104.513 12.6182L104.965 12.6295C105.431 12.6408 105.74 12.7163 105.929 12.9087C105.956 12.9351 105.979 12.9615 105.998 12.988V12.0144H104.467C104.317 12.0144 104.212 12.022 104.131 12.0748Z" fill="white"/>
<path d="M104.861 14.7274H103.233V13.9878H104.853C105.011 13.9878 105.123 13.9651 105.192 13.9048C105.25 13.8519 105.293 13.7765 105.293 13.6784C105.293 13.5765 105.25 13.4972 105.188 13.4482C105.127 13.3953 105.038 13.3727 104.895 13.3727C104.108 13.3501 103.117 13.3991 103.117 12.3011C103.117 11.8067 103.437 11.2747 104.324 11.2747H106.002V10.5955H104.44C103.973 10.5955 103.622 10.7011 103.383 10.8709V10.5955H101.08C100.714 10.5955 100.274 10.6822 100.07 10.8709V10.5955H95.9463V10.8709C95.6184 10.6445 95.0668 10.5955 94.8045 10.5955H92.0851V10.8709C91.8266 10.6256 91.2557 10.5955 90.9047 10.5955H87.8574L87.1593 11.3351L86.5112 10.5955H81.9673V15.4104H86.4302L87.1438 14.6594L87.8227 15.4066L90.5691 15.4104V14.2746H90.843C91.2056 14.2746 91.6376 14.267 92.0118 14.1085V15.4104H94.2876V14.15H94.3995C94.5383 14.15 94.5499 14.1614 94.5499 14.2897V15.4104H101.435C101.867 15.4104 102.334 15.3009 102.589 15.1047V15.4104H104.772C105.223 15.4104 105.671 15.3462 106.01 15.1877V14.2934C105.79 14.5878 105.404 14.7274 104.861 14.7274ZM90.8739 13.5727H89.8247V14.7274H88.1814L87.1477 13.5916L86.0676 14.7311H82.7233V11.2747H86.1178L87.1515 12.4105L88.2277 11.2747H90.9279C91.5913 11.2747 92.3435 11.4633 92.3435 12.418C92.3397 13.3727 91.6106 13.5727 90.8739 13.5727ZM95.9501 13.418C96.0697 13.584 96.089 13.7425 96.0928 14.0444V14.7274H95.2442V14.2897C95.2442 14.0859 95.2635 13.784 95.1054 13.6218C94.9819 13.4972 94.8006 13.4708 94.492 13.4708H93.5856V14.7274H92.7408V11.2709H94.6849C95.1131 11.2709 95.4255 11.286 95.6994 11.4407C95.9694 11.5954 96.1353 11.8218 96.1353 12.2067C96.1353 12.7539 95.7572 13.0369 95.5374 13.1237C95.7225 13.1916 95.8807 13.3161 95.9501 13.418ZM99.4179 11.9954H97.4468V12.618H99.3754V13.3312H97.4468V14.0142H99.4217V14.7311H96.6059V11.2747H99.4217V11.9954H99.4179ZM101.563 14.7274H99.9193V13.9878H101.555C101.713 13.9878 101.825 13.9651 101.894 13.9048C101.952 13.8519 101.995 13.7765 101.995 13.6784C101.995 13.5765 101.952 13.4972 101.89 13.4482C101.829 13.3953 101.74 13.3727 101.597 13.3727C100.81 13.3501 99.819 13.3991 99.819 12.3011C99.819 11.803 100.139 11.2747 101.026 11.2747H102.716V12.0143H101.169C101.015 12.0143 100.915 12.018 100.83 12.0709C100.741 12.1275 100.706 12.2105 100.706 12.3199C100.706 12.4482 100.783 12.5388 100.891 12.5765C100.98 12.6067 101.073 12.6142 101.215 12.6142L101.667 12.6256C102.133 12.6369 102.442 12.7124 102.631 12.9048C102.797 13.0784 102.886 13.2784 102.886 13.6368C102.889 14.3764 102.419 14.7274 101.563 14.7274Z" fill="white"/>
<path d="M95.0283 12.0522C94.928 11.9994 94.7738 11.9956 94.6272 11.9956H93.5857V12.7654H94.6156C94.7776 12.7654 94.9165 12.7616 95.0283 12.6975C95.1363 12.6371 95.2019 12.5163 95.2019 12.3692C95.1981 12.2182 95.1325 12.1126 95.0283 12.0522Z" fill="white"/>
</g>
<defs>
<linearGradient id="paint0_linear_1027_60066" x1="91" y1="0.5" x2="91" y2="19.5" gradientUnits="userSpaceOnUse">
<stop stop-color="#1B8ABA"/>
<stop offset="1" stop-color="#005D9C"/>
</linearGradient>
</defs>
</svg>
