<svg width="16" height="16" viewBox="0 0 16 16" fill="none" xmlns="http://www.w3.org/2000/svg">
<path fill-rule="evenodd" clip-rule="evenodd" d="M3.604 2.40001H14.65C14.8433 2.40001 15 2.55671 15 2.75001V3.10001C14.9949 3.68092 14.8381 4.25042 14.545 4.75201L12.9 7.64301C12.544 8.28278 11.875 8.68528 11.143 8.70001H6.782C6.6307 8.69675 6.48032 8.67561 6.334 8.63701L5.634 10.1H13.25C13.4433 10.1 13.6 10.2567 13.6 10.45V11.15C13.6 11.3433 13.4433 11.5 13.25 11.5H4.5C4.30843 11.5044 4.12928 11.4055 4.031 11.241L3.877 10.975C3.79606 10.8192 3.79606 10.6338 3.877 10.478L5.179 7.88801C5.10789 7.81292 5.04457 7.73084 4.99 7.64301L1.994 2.40001H1.35C1.1567 2.40001 1 2.24331 1 2.05001V1.35001C1 1.15671 1.1567 1.00001 1.35 1.00001H1.994C2.49616 0.998017 2.96092 1.26512 3.212 1.70001L3.604 2.40001ZM11.171 7.3C11.3916 7.2733 11.5865 7.1434 11.696 6.95L13.348 4.05901C13.3746 4.00581 13.3956 3.9498 13.4163 3.89455L13.4163 3.89454L13.4163 3.89453L13.4163 3.89451C13.4283 3.86253 13.4402 3.8308 13.453 3.80001H4.409L6.208 6.95C6.33229 7.16529 6.56143 7.2985 6.81 7.3H11.171ZM12.2 12.2C11.4268 12.2 10.8 12.8268 10.8 13.6C10.8 14.3732 11.4268 15 12.2 15C12.9732 15 13.6 14.3732 13.6 13.6C13.6 12.8268 12.9732 12.2 12.2 12.2ZM3.8 13.6C3.8 12.8268 4.4268 12.2 5.2 12.2C5.9732 12.2 6.6 12.8268 6.6 13.6C6.6 14.3732 5.9732 15 5.2 15C4.4268 15 3.8 14.3732 3.8 13.6Z" fill="white"/>
</svg>
