<svg width="14" height="14" viewBox="0 0 14 14" fill="none" xmlns="http://www.w3.org/2000/svg">
<g id="Close">
<path id="Vector" d="M11.9918 10.9093C12.2993 11.2159 12.2993 11.7134 11.9918 12.02C11.6844 12.3267 11.1855 12.3266 10.8781 12.02L7.00054 8.12418L3.09544 12.0187C2.78799 12.3253 2.28916 12.3253 1.98167 12.0187C1.67419 11.7121 1.67422 11.2146 1.98167 10.908L5.88808 7.01473L1.98059 3.09074C1.67314 2.78412 1.67314 2.28663 1.98059 1.97998C2.28804 1.67332 2.78688 1.67336 3.09436 1.97998L7.00054 5.90528L10.9056 2.01074C11.2131 1.70412 11.7119 1.70412 12.0194 2.01074C12.3269 2.31736 12.3269 2.81485 12.0194 3.1215L8.11299 7.01473L11.9918 10.9093Z" fill="#6950E8"/>
</g>
</svg>
