<svg xmlns="http://www.w3.org/2000/svg" width="14" height="15" viewBox="0 0 14 15" fill="none">
  <path d="M5.5 5C5.5 5.55198 5.05198 6 4.5 6H1.5C0.947773 6 0.5 5.55205 0.5 5V2C0.5 1.4477 0.947705 1 1.5 1H4.5C5.05205 1 5.5 1.44777 5.5 2V5ZM13.5 13C13.5 13.552 13.052 14 12.5 14H9.5C8.94802 14 8.5 13.552 8.5 13V10C8.5 9.44802 8.94802 9 9.5 9H12.5C13.052 9 13.5 9.44802 13.5 10V13Z" fill="#6950E8" stroke="#6950E8"/>
  <path opacity="0.4" d="M14 5.25C14 5.94063 13.4406 6.5 12.75 6.5H9.25C8.55937 6.5 8 5.94063 8 5.25V1.75C8 1.05969 8.55937 0.5 9.25 0.5H12.75C13.4406 0.5 14 1.05969 14 1.75V5.25ZM6 13.25C6 13.9406 5.44063 14.5 4.75 14.5H1.25C0.559687 14.5 0 13.9406 0 13.25V9.75C0 9.05937 0.559687 8.5 1.25 8.5H4.75C5.44063 8.5 6 9.05937 6 9.75V13.25Z" fill="#9CA3AF"/>
</svg>