<svg width="11" height="14" viewBox="0 0 11 14" fill="none" xmlns="http://www.w3.org/2000/svg">
<g id="Group 6">
<path id="Vector" d="M9.29289 3H7.5V1.20711L9.29289 3Z" fill="#6B7280" stroke="#6B7280"/>
<path id="Vector_2" opacity="0.4" d="M7 3.5V0H1.3125C0.587617 0 0 0.587617 0 1.3125V12.6875C0 13.4121 0.587617 14 1.3125 14H9.1875C9.91238 14 10.5 13.4124 10.5 12.6875V3.5H7ZM7.4375 11.375H3.0625C2.82188 11.375 2.625 11.1781 2.625 10.9375C2.625 10.6969 2.82188 10.5 3.0625 10.5H7.4375C7.67911 10.5 7.875 10.6959 7.875 10.9375C7.875 11.1791 7.67812 11.375 7.4375 11.375ZM7.4375 9.625H3.0625C2.82188 9.625 2.625 9.42813 2.625 9.1875C2.625 8.94687 2.82188 8.75 3.0625 8.75H7.4375C7.67911 8.75 7.875 8.94589 7.875 9.1875C7.875 9.42911 7.67812 9.625 7.4375 9.625ZM7.4375 7.875H3.0625C2.82188 7.875 2.625 7.67812 2.625 7.4375C2.625 7.19688 2.82188 7 3.0625 7H7.4375C7.67812 7 7.875 7.19688 7.875 7.4375C7.875 7.67812 7.67812 7.875 7.4375 7.875Z" fill="#6B7280"/>
</g>
</svg>
