<svg width="72" height="18" viewBox="0 0 72 18" fill="none" xmlns="http://www.w3.org/2000/svg">
<g clip-path="url(#clip0_1133_49934)">
<path d="M22.453 7.25462C23.2673 7.25462 23.9274 6.58857 23.9274 5.76709C23.9274 4.94546 23.2673 4.27955 22.453 4.27955C21.6386 4.27955 20.9786 4.94546 20.9786 5.76709C20.9786 6.58857 21.6386 7.25462 22.453 7.25462ZM71.1124 12.337C70.8881 12.1779 70.715 12.1516 70.5713 12.4605C68.095 17.8701 63.9219 15.1706 64.3364 15.4082C65.2621 14.9811 67.6966 13.0119 67.3286 10.2928C67.1051 8.631 65.691 7.89389 64.1901 8.15781C61.5701 8.61852 60.6062 11.4688 61.0969 13.9923C61.1828 14.4257 61.3362 14.7831 61.4895 15.1332C58.5287 17.5617 57.353 12.9593 57.2196 12.4093C57.2143 12.3799 59.5056 10.4535 60.1429 5.8631C60.8109 1.05206 59.2893 0.176054 57.7333 0.203385C54.854 0.253983 54.0759 6.3217 55.1212 11.3787C55.0337 11.4017 54.6262 11.6293 53.9716 11.6548C53.5005 10.1597 51.4876 8.84923 50.9608 9.35423C49.6423 10.6175 51.2805 13.0873 52.4332 13.281C51.7408 17.5827 47.4103 16.5173 48.2164 11.128C49.6266 8.48663 50.6991 4.55918 50.5078 2.18821C50.4399 1.34878 49.8246 0.224129 48.433 0.279913C45.7565 0.386716 45.4655 6.45612 45.7792 10.7638C45.7637 10.6577 45.6147 11.2872 44.5179 11.6002C44.2584 10.1477 41.9397 8.68973 41.3938 9.39067C40.372 10.7026 42.1429 13.0417 42.9816 13.2049C42.2892 17.5064 37.9588 16.4411 38.7649 11.0517C40.1751 8.41053 41.2475 4.48307 41.0562 2.1121C40.9883 1.27253 40.3731 0.147881 38.9814 0.203525C36.3049 0.310468 36.0139 6.37987 36.3276 10.6876C36.3119 10.5798 36.1595 11.23 35.0179 11.5378C34.9797 9.65333 32.6525 8.78924 32.0934 9.39053C31.0971 10.4623 32.3216 12.6615 33.4544 13.2049C32.762 17.5064 28.4316 16.4411 29.2377 11.0517C30.6479 8.41053 31.7204 4.48307 31.529 2.1121C31.4613 1.27253 30.846 0.147881 29.4542 0.203525C26.7778 0.310468 26.5624 6.685 26.8762 10.9926C25.9946 14.8023 23.0381 19.5599 23.4222 10.0294C23.4602 9.36082 23.5016 9.10699 23.1711 8.85666C22.9235 8.66212 22.3604 8.75574 22.0526 8.76345C21.6785 8.77859 21.5847 8.99934 21.502 9.33307C21.3094 10.1948 21.2748 11.0301 21.2473 12.1699C21.2293 12.7031 21.1869 12.9519 20.9833 13.6789C20.78 14.4058 19.6201 15.7344 18.985 15.5122C18.104 15.2067 18.393 12.6981 18.5581 10.9745C18.6957 9.61241 18.2552 9.00074 17.1265 8.77831C16.4657 8.63941 16.0643 8.66071 15.3761 8.44192C14.7254 8.23504 14.5782 6.9935 13.1902 7.40725C12.4311 7.63375 12.9191 9.25612 12.7366 10.4586C11.8396 16.3735 9.97322 16.536 9.10733 13.6626C13.0071 4.02923 10.2354 0.231417 8.61304 0.231417C6.92324 0.231417 4.99165 1.40541 5.80959 8.91693C5.41188 8.79989 5.28959 8.73682 4.85422 8.73682C2.39192 8.73682 0.714355 10.7445 0.714355 13.2211C0.714355 15.6978 2.39206 17.7056 4.85436 17.7056C6.30791 17.7056 7.32846 17.0389 8.10138 16.0074C8.60568 16.7358 9.21976 17.7168 10.3427 17.6727C13.6899 17.5412 14.6634 10.616 14.7783 10.2297C15.1361 10.2853 15.4746 10.3906 15.8051 10.4462C16.3557 10.5296 16.3957 10.7494 16.3832 11.3079C16.2373 16.0179 17.099 17.6671 19.0536 17.6671C20.1427 17.6671 21.1134 16.5878 21.7821 15.8161C22.2815 16.8558 23.0773 17.6352 24.145 17.6669C26.7321 17.7318 27.7226 13.5728 27.6323 14.1201C27.5614 14.5496 28.4716 17.6435 31.135 17.6547C34.4341 17.6687 35.0474 14.0094 35.1205 13.3965C35.1296 13.2745 35.1337 13.2872 35.1205 13.3965L35.118 13.4336C36.1653 13.2371 36.7058 12.6707 36.7058 12.6707C36.7058 12.6707 37.5468 17.7116 40.6621 17.6549C43.8971 17.5957 44.5072 14.2879 44.5872 13.6429C44.5978 13.4898 44.604 13.5078 44.5872 13.6429C44.5868 13.6492 44.5864 13.6555 44.586 13.6618C45.8301 13.2053 46.1574 12.7471 46.1574 12.7471C46.1574 12.7471 46.8258 17.6878 50.1137 17.731C53.0436 17.7697 54.1294 14.7434 54.1358 13.4768C54.63 13.4821 55.5441 13.1811 55.5227 13.164C55.5227 13.164 56.5959 17.4837 59.5929 17.7056C61.0001 17.8097 62.0556 16.907 62.6573 16.4952C64.0714 17.6502 68.7802 19.1256 71.7535 14.0412C72.1731 13.3115 71.2709 12.4496 71.1124 12.337ZM4.73554 16.0284C3.29894 16.0284 2.37775 14.6886 2.37775 13.244C2.37775 11.7995 3.22334 10.4597 4.65995 10.4597C5.3064 10.4597 5.66604 10.5314 6.16951 10.9731C6.26081 11.336 6.51956 12.173 6.64546 12.5531C6.81416 13.0618 7.01482 13.4947 7.21715 13.966C6.92811 15.1746 5.98052 16.0284 4.73554 16.0284ZM8.23631 11.0156C8.17656 10.9196 8.18906 10.9786 8.12222 10.8879C7.85889 10.1653 7.35139 8.55265 7.29261 6.72088C7.22619 4.64874 7.56859 2.21988 8.57802 2.21988C9.262 2.21988 9.98892 7.14235 8.23617 11.0156H8.23631ZM28.464 8.85652C28.3019 7.62688 28.2935 2.14518 29.5982 2.29613C30.3186 2.59047 29.1414 7.76312 28.464 8.85652ZM37.9912 8.85652C37.8291 7.62688 37.8207 2.14518 39.1254 2.29613C39.8458 2.59047 38.6686 7.76312 37.9912 8.85652ZM47.4428 8.93291C47.2806 7.70313 47.2723 2.22143 48.5769 2.37238C49.2972 2.66672 48.1201 7.83951 47.4428 8.93291ZM57.8773 1.9753C59.0701 1.85056 59.0209 7.10464 56.6266 10.4217C56.3178 9.22276 55.8444 2.38696 57.8773 1.97516V1.9753ZM62.8911 13.281C62.508 11.329 63.4979 10.0469 64.5185 9.90633C64.8752 9.84886 65.3921 10.0819 65.4952 10.5177C65.6648 11.3389 65.4707 12.5571 63.1865 14.1026C63.1898 14.1158 62.9765 13.7158 62.8912 13.281H62.8911Z" fill="white"/>
</g>
<defs>
<clipPath id="clip0_1133_49934">
<rect width="71.1764" height="17.6603" fill="white" transform="translate(0.700684 0.202271)"/>
</clipPath>
</defs>
</svg>
