<svg width="14" height="12" viewBox="0 0 14 12" fill="none" xmlns="http://www.w3.org/2000/svg">
<g id="Group 11">
<path id="Vector" d="M12.6875 0C13.4121 0 14 0.619904 14 1.38462C14 1.82019 13.8059 2.22981 13.475 2.49231L7.525 7.2C7.21328 7.44519 6.78672 7.44519 6.475 7.2L0.525 2.49231C0.194496 2.22981 0 1.82019 0 1.38462C0 0.619904 0.587617 0 1.3125 0H12.6875Z" fill="#6B7280"/>
<path id="Vector_2" opacity="0.4" d="M0.525 3.41537L6.475 8.12306C6.78672 8.36826 7.21328 8.36826 7.525 8.12306L13.475 3.41537C13.8059 3.15287 14 2.74326 14 2.30768V10.1538C14 11.1721 13.2152 12 12.25 12H1.75C0.783399 12 0 11.1721 0 10.1538V2.30768C0 2.74326 0.194496 3.15287 0.525 3.41537Z" fill="#9CA3AF"/>
</g>
</svg>
