<svg width="105" height="22" viewBox="0 0 105 22" fill="none" xmlns="http://www.w3.org/2000/svg">
<path d="M21.4279 1.41006C18.9437 -0.135258 15.6831 0.231755 12.7719 2.0475C9.8607 0.231755 6.60013 -0.135258 4.11589 1.41006C0.19545 3.84393 -0.289753 10.1218 3.04844 15.4338C5.51328 19.3551 9.35609 21.6344 12.7719 21.5958C16.1877 21.6344 20.0306 19.3357 22.4954 15.4338C25.8142 10.1218 25.3484 3.84393 21.4279 1.41006ZM4.8534 14.3135C4.17412 13.2317 3.6501 12.0341 3.32016 10.7979C3.02904 9.71614 2.91259 8.6151 2.99022 7.49475C3.14549 5.52447 3.94122 3.99847 5.24156 3.18717C6.54191 2.37588 8.26923 2.31793 10.113 3.05196C10.3847 3.16786 10.6564 3.28376 10.9281 3.43829C9.89951 4.36548 9.00674 5.42788 8.28864 6.60619C6.27019 9.83204 5.64913 13.4249 6.34783 16.2837C5.78499 15.6656 5.29979 15.0089 4.8534 14.3135ZM22.2237 10.7979C21.8937 12.0341 21.3697 13.2124 20.6904 14.2941C20.244 14.9895 19.7394 15.6463 19.1766 16.2644C19.8171 13.6953 19.3707 10.5661 17.8374 7.61064C17.7792 7.51406 17.7016 7.4368 17.5851 7.41748C17.4881 7.39816 17.3716 7.39816 17.2746 7.45611L12.442 10.4695C12.3449 10.5274 12.2867 10.6047 12.2673 10.7206C12.2479 10.8365 12.2673 10.9331 12.3255 11.0103L13.0242 12.1307C13.0824 12.2273 13.1601 12.2852 13.2765 12.3045C13.3736 12.3239 13.49 12.3045 13.5676 12.2466L16.6924 10.2956C16.7894 10.6047 16.8864 10.8944 16.9641 11.2035C17.2552 12.2852 17.3716 13.3863 17.294 14.5066C17.1387 16.4769 16.343 18.0029 15.0427 18.8142C14.3634 19.2198 13.5871 19.4516 12.8107 19.4516C12.7913 19.4516 12.7719 19.4516 12.7525 19.4516H12.7137C11.918 19.4323 11.1416 19.2198 10.4818 18.8142C9.18141 18.0029 8.36627 16.4769 8.23041 14.5066C8.15278 13.3863 8.26923 12.2852 8.56035 11.2035C9.23964 8.71168 10.637 6.49029 12.5972 4.79044C13.4318 4.05641 14.4022 3.4576 15.4308 3.05196C17.2746 2.31793 19.0019 2.37588 20.3023 3.18717C21.6026 3.99847 22.4178 5.52447 22.5536 7.49475C22.6312 8.6151 22.5148 9.71614 22.2237 10.7979ZM47.1437 8.46057C44.6012 8.46057 42.5634 10.4308 42.5634 12.942C42.5634 15.4338 44.6207 17.3655 47.1437 17.3655C49.7056 17.3655 51.7434 15.4338 51.7434 12.942C51.7434 10.4308 49.7056 8.46057 47.1437 8.46057ZM47.1437 15.0282C45.9792 15.0282 45.0864 14.0817 45.0864 12.9227C45.0864 11.7637 45.9792 10.7979 47.1437 10.7979C48.3276 10.7979 49.2204 11.7637 49.2204 12.9227C49.2204 14.0817 48.3276 15.0282 47.1437 15.0282ZM57.4688 5.02224H52.7915C52.6944 5.02224 52.5974 5.06087 52.5198 5.13814C52.4421 5.2154 52.4033 5.31199 52.4033 5.40857V16.7473C52.4033 16.8439 52.4421 16.9598 52.5004 17.0371C52.5586 17.1143 52.675 17.153 52.7721 17.153H57.4494C61.1952 17.153 63.7765 14.6805 63.7765 11.0876C63.8153 7.4368 61.2146 5.02224 57.4688 5.02224ZM57.5853 14.7384H55.0234V7.39816H57.5853C59.662 7.39816 61.0787 8.94348 61.0787 11.049C61.0787 13.1352 59.662 14.7384 57.5853 14.7384ZM73.1118 8.69237H71.3651C71.171 8.71168 71.0157 8.86621 70.9963 9.0787V9.60024C70.5887 8.94348 69.696 8.46057 68.5703 8.46057C66.3772 8.46057 64.3199 10.1797 64.3199 12.9034C64.3199 15.627 66.3578 17.3655 68.5509 17.3655C69.6765 17.3655 70.6081 16.8825 70.9963 16.2258V16.7666C70.9963 16.9598 71.1516 17.1337 71.3651 17.1337H73.1118C73.2088 17.1337 73.3059 17.095 73.3641 17.0371C73.4417 16.9598 73.4805 16.8825 73.4611 16.786V9.0787C73.4611 8.98211 73.4223 8.88553 73.3641 8.80826C73.3059 8.75032 73.2088 8.69237 73.1118 8.69237ZM69.0167 15.0475C67.8522 15.0475 66.9788 14.1589 66.9788 12.9227C66.9788 11.6864 67.8522 10.7979 69.0167 10.7979C70.1812 10.7979 71.0545 11.6864 71.0545 12.9227C71.0545 14.1589 70.1812 15.0475 69.0167 15.0475ZM82.9517 5.02224H81.205C81.1079 5.02224 81.0109 5.06087 80.9333 5.11882C80.8556 5.19609 80.8168 5.27335 80.8168 5.38925V9.56161C80.4092 8.94348 79.4971 8.46057 78.352 8.46057C76.1783 8.46057 74.1598 10.1797 74.1598 12.9034C74.1598 15.627 76.1977 17.3655 78.3908 17.3655C79.5165 17.3655 80.3704 16.8825 80.8362 16.2258V16.7666C80.8362 16.9598 80.9915 17.1337 81.205 17.1337H82.9517C83.0487 17.1337 83.1458 17.095 83.204 17.0371C83.2816 16.9598 83.3205 16.8825 83.301 16.786V5.38925C83.301 5.29267 83.2622 5.19609 83.204 5.11882C83.1458 5.04155 83.0487 5.02224 82.9517 5.02224ZM78.876 15.0668C77.7115 15.0668 76.8576 14.1589 76.8576 12.9227C76.8576 11.6864 77.7309 10.7785 78.876 10.7785C80.0211 10.7785 80.8944 11.6864 80.8944 12.9227C80.8944 14.1589 80.0405 15.0668 78.876 15.0668ZM92.811 5.02224H91.0643C90.9673 5.02224 90.8702 5.06087 90.7926 5.11882C90.715 5.19609 90.6761 5.27335 90.6761 5.38925V9.56161C90.2686 8.94348 89.3564 8.46057 88.2113 8.46057C86.0376 8.46057 84.0191 10.1797 84.0191 12.9034C84.0191 15.627 86.057 17.3655 88.2501 17.3655C89.3758 17.3655 90.2298 16.8825 90.6955 16.2258V16.7666C90.6955 16.9598 90.8508 17.1337 91.0643 17.1337H92.811C92.9081 17.1337 93.0051 17.095 93.0633 17.0371C93.141 16.9598 93.1604 16.8825 93.1604 16.786V5.38925C93.1604 5.29267 93.1216 5.19609 93.0633 5.11882C93.0051 5.06087 92.9081 5.02224 92.811 5.02224ZM88.7353 15.0668C87.5708 15.0668 86.7169 14.1589 86.7169 12.9227C86.7169 11.6864 87.5902 10.7785 88.7353 10.7785C89.8804 10.7785 90.7538 11.6864 90.7538 12.9227C90.7538 14.1589 89.8804 15.0668 88.7353 15.0668ZM102.418 9.29118L99.798 18.2347C99.2934 19.8186 98.1677 20.7845 96.4015 20.7845C95.6058 20.7845 94.8683 20.6299 94.3055 20.3016C93.9755 20.1084 93.7038 19.9345 93.7038 19.6641C93.7038 19.4903 93.762 19.413 93.8591 19.2392L94.3831 18.4665C94.5384 18.254 94.6354 18.1768 94.7907 18.1768C94.9071 18.1768 95.043 18.2154 95.14 18.2926C95.4699 18.5051 95.7611 18.679 96.2269 18.679C96.7703 18.679 97.1779 18.5051 97.4108 17.8677L97.6436 17.1337H96.5762C96.3239 17.1337 96.1686 16.9791 96.1104 16.7666L93.762 9.29118C93.6844 9.00143 93.762 8.71168 94.189 8.71168H96.0328C96.2657 8.71168 96.4209 8.78895 96.518 9.11733L98.2453 15.1441L99.8562 9.11733C99.9144 8.90485 100.05 8.71168 100.322 8.71168H102.069C102.437 8.69237 102.554 8.94348 102.418 9.29118ZM41.8841 11.9568V16.728C41.8841 16.8246 41.8453 16.9405 41.7677 17.0178C41.69 17.095 41.593 17.1337 41.4765 17.1337H40.0209C39.9239 17.1337 39.8074 17.095 39.7298 17.0178C39.6522 16.9405 39.6134 16.8439 39.6134 16.728V15.4724C38.7012 16.6314 37.0903 17.3655 35.2853 17.3655C31.8889 17.3655 29.23 14.8157 29.23 11.2035C29.23 7.4368 32.1024 4.84839 35.7123 4.84839C38.3906 4.84839 40.5255 5.98806 41.4765 8.28672C41.4959 8.34467 41.5154 8.42194 41.5154 8.47989C41.5154 8.59578 41.4377 8.67305 41.2048 8.75032L39.5163 9.40707C39.4193 9.44571 39.3028 9.44571 39.2058 9.40707C39.1087 9.34912 39.0505 9.27186 39.0117 9.17528C38.41 8.03561 37.3232 7.24363 35.6541 7.24363C33.4998 7.24363 31.9471 8.92416 31.9471 11.0876C31.9471 13.1931 33.2669 14.9316 35.7123 14.9316C36.9933 14.9316 38.0219 14.3328 38.5071 13.6567H36.9739C36.8768 13.6567 36.7604 13.6181 36.6827 13.5408C36.6051 13.4635 36.5663 13.367 36.5663 13.2511V11.9568C36.5663 11.8603 36.6051 11.7444 36.6827 11.6671C36.7604 11.5898 36.8574 11.5512 36.9739 11.5512H41.4571C41.5542 11.5512 41.6706 11.5898 41.7288 11.6478C41.8453 11.7444 41.8841 11.841 41.8841 11.9568ZM102.476 6.93457V6.81867V6.79935H102.496H103.233H103.253V6.81867V6.93457V6.95388H103.233H102.961V7.68791C102.961 7.70723 102.942 7.72654 102.923 7.72654H102.787H102.767V7.70723V6.9732H102.496H102.476C102.476 6.95388 102.476 6.93457 102.476 6.93457ZM103.777 6.81867L103.971 7.28226L104.165 6.81867C104.165 6.81867 104.165 6.79935 104.184 6.79935H104.204H104.436H104.456V6.81867V7.68791V7.70723H104.436H104.32H104.301V7.68791V7.03115L104.087 7.51406C104.087 7.51406 104.087 7.53338 104.068 7.53338H104.048H103.932H103.912L103.893 7.51406L103.68 7.03115V7.68791V7.70723H103.66H103.524H103.505V7.68791V6.81867V6.79935H103.524H103.757H103.777C103.757 6.79935 103.757 6.79935 103.777 6.81867Z" fill="white"/>
</svg>
