<svg width="70" height="23" viewBox="0 0 70 23" fill="none" xmlns="http://www.w3.org/2000/svg">
<g clip-path="url(#clip0_1133_49925)">
<path d="M9.03315 0.000976562H9.64456C11.7672 0.0462881 13.8552 0.884551 15.3549 2.3685C14.8011 2.92357 14.2359 3.45598 13.6937 4.01105C12.8516 3.26341 11.8364 2.68568 10.7289 2.48178C9.09083 2.14195 7.32583 2.4478 5.95306 3.36536C4.45338 4.32823 3.43822 5.95944 3.21903 7.70394C2.97678 9.42577 3.47283 11.2382 4.61488 12.5749C5.7108 13.8776 7.38351 14.6932 9.11391 14.7499C10.7289 14.8405 12.4132 14.3534 13.5899 13.2433C14.5127 12.4616 14.9396 11.2722 15.078 10.1168C13.163 10.1168 11.2481 10.1281 9.33309 10.1168V7.78323H17.3967C17.812 10.2867 17.2121 13.1073 15.2741 14.8971C13.9821 16.1659 12.194 16.9135 10.3713 17.0608C8.60632 17.2307 6.78364 16.9022 5.21475 16.0639C3.33439 15.0784 1.83472 13.4132 1.09642 11.4535C0.404262 9.65233 0.392726 7.61331 1.03874 5.80085C1.62707 4.14698 2.7576 2.68568 4.21113 1.66618C5.60698 0.657994 7.30276 0.102927 9.03315 0.000976562Z" fill="white"/>
<path d="M55.292 0.589722H57.7607V16.7659C56.9416 16.7659 56.111 16.7773 55.292 16.7546C55.3035 11.3739 55.292 5.98179 55.292 0.589722Z" fill="white"/>
<path d="M22.8873 6.19765C24.41 5.91446 26.0597 6.23164 27.3171 7.12654C28.4592 7.91949 29.2551 9.16556 29.4974 10.5249C29.8089 12.0995 29.4166 13.8213 28.3784 15.0674C27.2594 16.4607 25.4252 17.2084 23.6371 17.0951C21.999 17.0045 20.4071 16.2002 19.438 14.8861C18.3421 13.4362 18.0768 11.4425 18.6767 9.74328C19.2765 7.91949 20.9723 6.52616 22.8873 6.19765ZM23.2334 8.34995C22.6104 8.50854 22.0336 8.85971 21.6183 9.35813C20.4994 10.6722 20.5686 12.8131 21.8029 14.0365C22.5066 14.7389 23.5679 15.0674 24.5485 14.8748C25.4598 14.7162 26.2558 14.1158 26.6942 13.3229C27.4555 11.9749 27.2363 10.1171 26.0712 9.06361C25.3214 8.38394 24.2255 8.10074 23.2334 8.34995Z" fill="white"/>
<path d="M35.1156 6.19678C36.8575 5.86827 38.761 6.34404 40.0645 7.5448C42.1871 9.4139 42.4179 12.9142 40.6067 15.0665C39.5108 16.4259 37.7343 17.1735 35.9808 17.0942C34.3081 17.0489 32.6584 16.2333 31.6664 14.8853C30.5474 13.4013 30.3051 11.3623 30.9396 9.62913C31.5741 7.86198 33.2352 6.51396 35.1156 6.19678ZM35.4617 8.34908C34.8387 8.50767 34.2619 8.85883 33.8466 9.34593C32.7392 10.6373 32.7853 12.7443 33.9735 13.979C34.6772 14.7153 35.7731 15.0778 36.7883 14.8739C37.6881 14.704 38.4956 14.115 38.934 13.322C39.6838 11.9627 39.4647 10.1049 38.288 9.05141C37.5382 8.37173 36.4422 8.09986 35.4617 8.34908Z" fill="white"/>
<path d="M45.4866 6.85415C46.8132 6.03854 48.5782 5.81198 50.0087 6.51431C50.4586 6.70689 50.8277 7.0354 51.1854 7.3639C51.1969 7.05805 51.1854 6.74087 51.1969 6.42369C51.9698 6.43502 52.7427 6.42369 53.5272 6.43502V16.4262C53.5156 17.9328 53.1234 19.53 52.016 20.6289C50.8047 21.8409 48.9474 22.2148 47.2747 21.9655C45.4866 21.705 43.9292 20.425 43.2371 18.8051C43.9292 18.4766 44.656 18.216 45.3712 17.9102C45.775 18.839 46.5941 19.632 47.6208 19.8132C48.6475 19.9945 49.8357 19.7453 50.5047 18.907C51.22 18.0461 51.22 16.868 51.1854 15.8145C50.6547 16.3243 50.0433 16.7774 49.305 16.9473C47.7015 17.3891 45.9365 16.8453 44.7022 15.7805C43.4563 14.7157 42.718 13.0732 42.7872 11.4419C42.8218 9.5955 43.8831 7.81702 45.4866 6.85415ZM47.8745 8.30412C47.1709 8.4174 46.5133 8.80254 46.0634 9.33495C44.979 10.6037 44.979 12.6314 46.0749 13.8774C46.6979 14.6137 47.7015 15.0216 48.6705 14.9196C49.5819 14.829 50.424 14.2626 50.8739 13.481C51.6353 12.1556 51.5084 10.3545 50.4817 9.19902C49.8472 8.48536 48.832 8.1342 47.8745 8.30412Z" fill="white"/>
<path d="M60.7252 7.43211C62.1095 6.16338 64.2436 5.73292 66.0202 6.40127C67.7044 7.0243 68.7773 8.59888 69.3194 10.2188C66.8161 11.2383 64.3244 12.2465 61.8211 13.266C62.1672 13.9117 62.6978 14.5007 63.413 14.7386C64.4167 15.0898 65.6164 14.9651 66.4585 14.3081C66.7931 14.0589 67.0584 13.7304 67.3122 13.4132C67.9467 13.8324 68.5811 14.2402 69.2156 14.6593C68.3158 15.9847 66.8046 16.9135 65.178 17.0608C63.3784 17.276 61.4635 16.5964 60.2983 15.2144C58.3834 13.0394 58.5679 9.39183 60.7252 7.43211ZM61.9595 9.52776C61.5673 10.0828 61.4058 10.7625 61.4173 11.4308C63.09 10.7512 64.7627 10.0715 66.4355 9.3805C66.1586 8.74614 65.4895 8.36099 64.8089 8.25904C63.713 8.06647 62.5709 8.64419 61.9595 9.52776Z" fill="white"/>
</g>
<defs>
<clipPath id="clip0_1133_49925">
<rect width="68.7543" height="22.0366" fill="white" transform="translate(0.56543)"/>
</clipPath>
</defs>
</svg>
