<svg width="16" height="16" viewBox="0 0 16 16" fill="none" xmlns="http://www.w3.org/2000/svg">
<path d="M8 15C11.8664 15 15 11.8664 15 8C15 4.13359 11.8664 1 8 1C4.13359 1 1 4.13359 1 8C1 11.8664 4.13359 15 8 15ZM6.90625 10.1875H7.5625V8.4375H6.90625C6.54258 8.4375 6.25 8.14492 6.25 7.78125C6.25 7.41758 6.54258 7.125 6.90625 7.125H8.21875C8.58242 7.125 8.875 7.41758 8.875 7.78125V10.1875H9.09375C9.45742 10.1875 9.75 10.4801 9.75 10.8438C9.75 11.2074 9.45742 11.5 9.09375 11.5H6.90625C6.54258 11.5 6.25 11.2074 6.25 10.8438C6.25 10.4801 6.54258 10.1875 6.90625 10.1875ZM8 6.25C7.51602 6.25 7.125 5.85898 7.125 5.375C7.125 4.89102 7.51602 4.5 8 4.5C8.48398 4.5 8.875 4.89102 8.875 5.375C8.875 5.85898 8.48398 6.25 8 6.25Z" fill="#6950E8"/>
</svg>
