<svg width="11" height="14" viewBox="0 0 11 14" fill="none" xmlns="http://www.w3.org/2000/svg">
<g id="Group 4340">
<path id="Vector" opacity="0.4" d="M9.33318 1.86688H0.933318C0.417861 1.86688 0 2.28474 0 2.8002V13.0667C0 13.5822 0.417861 14 0.933318 14H9.33318C9.84864 14 10.2665 13.5822 10.2665 13.0667V2.8002C10.2665 2.28474 9.84864 1.86688 9.33318 1.86688Z" fill="#9CA3AF"/>
<path id="Vector_2" d="M7.19157 0.0562554C7.08735 0.0165524 6.9764 -0.00246824 6.86491 0.000256287H3.4023C3.29081 -0.00246824 3.17985 0.0165524 3.07564 0.0562554C2.74373 0.176238 2.46779 0.414513 2.30072 0.725395C2.13365 1.03628 2.08722 1.39789 2.17032 1.74089L2.80031 4.31219C2.82586 4.41573 2.8861 4.50739 2.97101 4.57192C3.05592 4.63645 3.16036 4.66995 3.26697 4.66685H7.00024C7.10684 4.66995 7.21129 4.63645 7.2962 4.57192C7.3811 4.50739 7.44135 4.41573 7.4669 4.31219L8.11089 1.74089C8.19321 1.39611 8.1448 1.03305 7.975 0.721892C7.80519 0.410733 7.52607 0.173573 7.19157 0.0562554ZM7.4669 7.4668H2.80031C2.67654 7.4668 2.55784 7.41764 2.47033 7.33012C2.38281 7.24261 2.33365 7.12391 2.33365 7.00014C2.33365 6.87638 2.38281 6.75768 2.47033 6.67016C2.55784 6.58265 2.67654 6.53348 2.80031 6.53348H7.4669C7.59066 6.53348 7.70936 6.58265 7.79688 6.67016C7.88439 6.75768 7.93356 6.87638 7.93356 7.00014C7.93356 7.12391 7.88439 7.24261 7.79688 7.33012C7.70936 7.41764 7.59066 7.4668 7.4669 7.4668ZM7.4669 9.8001H2.80031C2.67654 9.8001 2.55784 9.75093 2.47033 9.66342C2.38281 9.5759 2.33365 9.4572 2.33365 9.33344C2.33365 9.20967 2.38281 9.09097 2.47033 9.00346C2.55784 8.91594 2.67654 8.86678 2.80031 8.86678H7.4669C7.59066 8.86678 7.70936 8.91594 7.79688 9.00346C7.88439 9.09097 7.93356 9.20967 7.93356 9.33344C7.93356 9.4572 7.88439 9.5759 7.79688 9.66342C7.70936 9.75093 7.59066 9.8001 7.4669 9.8001ZM7.4669 12.1334H2.80031C2.67654 12.1334 2.55784 12.0842 2.47033 11.9967C2.38281 11.9092 2.33365 11.7905 2.33365 11.6667C2.33365 11.543 2.38281 11.4243 2.47033 11.3368C2.55784 11.2492 2.67654 11.2001 2.80031 11.2001H7.4669C7.59066 11.2001 7.70936 11.2492 7.79688 11.3368C7.88439 11.4243 7.93356 11.543 7.93356 11.6667C7.93356 11.7905 7.88439 11.9092 7.79688 11.9967C7.70936 12.0842 7.59066 12.1334 7.4669 12.1334Z" fill="#6B7280"/>
</g>
</svg>
