<svg xmlns="http://www.w3.org/2000/svg" width="32" height="44" viewBox="0 0 32 44" fill="none">
  <path d="M9.84506 0C10.278 1.18963 10.9271 2.19592 10.9847 3.5102C11.0879 5.864 10.1643 8.01853 9.05371 10.0408C6.99861 13.7828 4.06514 16.9895 2.15142 20.8163C-0.0395159 25.1976 -0.695352 30.4304 2.9911 34.2857C4.09036 35.4353 5.44081 36.305 6.82465 37.0726C8.92473 38.2374 11.1615 39.1278 13.2736 40.2701C14.3762 40.8664 15.3554 41.7233 16.4573 42.2857C16.8873 36.8375 20.2544 31.9779 21.4654 26.6939C23.3712 18.3776 20.2611 10.3659 14.6063 4.25878C13.2089 2.74963 11.6001 1.09657 9.84506 0Z" fill="url(#paint0_linear_6325_59135)"/>
  <path d="M18.0086 2.77551C17.5771 3.24866 16.9404 4.1227 17.157 4.81633C17.4393 5.72057 18.4687 6.62123 18.9838 7.42857C20.2688 9.44319 21.4336 11.5222 22.199 13.7959C23.9772 19.0787 23.8313 24.5141 22.1438 29.7959C20.6289 34.5372 17.9269 38.9014 17.9269 44H18.0086C18.5168 41.8604 20.686 40.1428 22.2535 38.7629C25.296 36.0844 28.7763 33.5065 30.6314 29.7959C34.3607 22.3362 27.4665 15.9291 23.0228 10.7755C22.0722 9.67323 21.1158 8.5867 20.2318 7.42857C19.5291 6.508 18.8431 5.49935 18.4354 4.40817C18.2394 3.88351 18.2464 3.27045 18.0086 2.77551Z" fill="url(#paint1_linear_6325_59135)"/>
  <defs>
    <linearGradient id="paint0_linear_6325_59135" x1="11.1967" y1="0" x2="11.1967" y2="42.2857" gradientUnits="userSpaceOnUse">
      <stop stop-color="#3A16F0"/>
      <stop offset="1" stop-color="#5437E7"/>
    </linearGradient>
    <linearGradient id="paint1_linear_6325_59135" x1="24.406" y1="2.77551" x2="24.406" y2="44" gradientUnits="userSpaceOnUse">
      <stop stop-color="#3A16F0"/>
      <stop offset="1" stop-color="#5437E7"/>
    </linearGradient>
  </defs>
</svg>