<svg width="16" height="16" viewBox="0 0 16 16" fill="none" xmlns="http://www.w3.org/2000/svg">
<path fill-rule="evenodd" clip-rule="evenodd" d="M7.6 1C5.2804 1 3.4 2.8804 3.4 5.2V6.6C2.6268 6.6 2 7.2268 2 8V13.6C2 14.3732 2.6268 15 3.4 15H11.8C12.5732 15 13.2 14.3732 13.2 13.6V8C13.2 7.2268 12.5732 6.6 11.8 6.6V5.2C11.8 2.8804 9.9196 1 7.6 1ZM11.8 8.00001V13.6H3.4V8.00001H11.8ZM4.8 5.2V6.6H10.4V5.2C10.4 3.6536 9.1464 2.39999 7.6 2.39999C6.0536 2.39999 4.8 3.6536 4.8 5.2Z" fill="#6B7280"/>
</svg>
