<svg width="18" height="18" viewBox="0 0 18 18" fill="none" xmlns="http://www.w3.org/2000/svg">
<g id="Icon">
<path id="Vector" d="M12.2933 1.70237L10.803 3.19274L14.806 7.1958L16.2964 5.70543C17.0662 4.93561 17.0662 3.6885 16.2964 2.91868L15.0832 1.70237C14.3134 0.932545 13.0662 0.932545 12.2964 1.70237H12.2933ZM10.1071 3.88866L2.92925 11.0695C2.609 11.3898 2.37497 11.787 2.24565 12.2212L1.15558 15.9256C1.0786 16.1873 1.14942 16.4675 1.34034 16.6584C1.53125 16.8494 1.81147 16.9202 2.07013 16.8463L5.7745 15.7562C6.20868 15.6269 6.60591 15.3929 6.92615 15.0726L14.1101 7.89172L10.1071 3.88866Z" fill="#6B7280"/>
</g>
</svg>
