<svg version="1.1" id="Layer_1" xmlns="http://www.w3.org/2000/svg" xmlns:xlink="http://www.w3.org/1999/xlink" x="0px" y="0px"
	 width="100%" viewBox="0 0 948 243" enable-background="new 0 0 948 243" xml:space="preserve">
<path fill="#ffffff" opacity="1.000000" stroke="none" 
	d="
M635.000000,244.000000 
	C423.333344,244.000000 212.166672,244.000000 1.000000,244.000000 
	C1.000000,163.000000 1.000000,82.000000 1.000000,1.000000 
	C317.000000,1.000000 633.000000,1.000000 949.000000,1.000000 
	C949.000000,82.000000 949.000000,163.000000 949.000000,244.000000 
	C844.500000,244.000000 740.000000,244.000000 635.000000,244.000000 
M509.500000,25.000025 
	C365.192841,25.000013 220.885681,24.972097 76.578690,25.123182 
	C71.830330,25.128153 66.634270,26.030752 62.414585,28.088865 
	C44.442474,36.854599 33.946068,50.829189 33.983376,71.596931 
	C34.044441,105.590599 34.091221,139.584824 33.952938,173.578033 
	C33.900806,186.392441 36.604744,197.925232 46.018520,207.386749 
	C54.773464,216.186096 64.595558,222.032806 77.453979,222.030869 
	C348.071106,221.990051 618.688232,222.011185 889.305359,221.970383 
	C904.492188,221.968094 915.840332,214.040619 924.911987,202.810623 
	C930.917358,195.376511 933.028870,186.273285 933.017212,176.689331 
	C932.974304,141.362518 932.975342,106.035591 933.019043,70.708778 
	C933.028931,62.719154 931.476562,55.282227 927.111328,48.403107 
	C917.836731,33.787514 905.373718,24.967442 887.430969,24.974360 
	C761.787292,25.022816 636.143677,25.000023 509.500000,25.000025 
z"/>
<path fill="#665BFF" opacity="1.000000" stroke="none" 
	d="
M510.000000,25.000025 
	C636.143677,25.000023 761.787292,25.022816 887.430969,24.974360 
	C905.373718,24.967442 917.836731,33.787514 927.111328,48.403107 
	C931.476562,55.282227 933.028931,62.719154 933.019043,70.708778 
	C932.975342,106.035591 932.974304,141.362518 933.017212,176.689331 
	C933.028870,186.273285 930.917358,195.376511 924.911987,202.810623 
	C915.840332,214.040619 904.492188,221.968094 889.305359,221.970383 
	C618.688232,222.011185 348.071106,221.990051 77.453979,222.030869 
	C64.595558,222.032806 54.773464,216.186096 46.018520,207.386749 
	C36.604744,197.925232 33.900806,186.392441 33.952938,173.578033 
	C34.091221,139.584824 34.044441,105.590599 33.983376,71.596931 
	C33.946068,50.829189 44.442474,36.854599 62.414585,28.088865 
	C66.634270,26.030752 71.830330,25.128153 76.578690,25.123182 
	C220.885681,24.972097 365.192841,25.000013 510.000000,25.000025 
M443.500000,213.000000 
	C588.482727,213.000000 733.465393,213.009506 878.448120,212.978333 
	C887.954224,212.976288 896.856384,211.720917 905.561157,206.515717 
	C916.826538,199.779343 922.580872,190.100616 922.782471,177.988846 
	C923.386902,141.669830 923.002441,105.334312 922.991333,69.005234 
	C922.990845,67.513672 923.119812,65.956139 922.755798,64.540596 
	C918.143921,46.606247 902.293091,34.012215 883.533264,34.011074 
	C616.897827,33.994850 350.262390,33.991951 83.626991,34.076366 
	C79.612099,34.077641 75.530891,34.948368 71.596710,35.895477 
	C63.345623,37.881824 57.011555,42.342815 51.758743,49.374664 
	C46.473515,56.449917 43.938702,63.764812 43.962231,72.415451 
	C44.055595,106.744507 43.872189,141.074966 44.136784,175.402237 
	C44.177246,180.651962 45.290577,186.189606 47.263042,191.043304 
	C49.161560,195.715088 51.988083,200.759567 55.870743,203.721085 
	C64.275024,210.131424 74.294617,213.016998 85.041870,213.014877 
	C204.194580,212.991272 323.347290,213.000000 443.500000,213.000000 
z"/>
<path fill="#ffffff" opacity="1.000000" stroke="none" 
	d="
M443.000000,213.000000 
	C323.347290,213.000000 204.194580,212.991272 85.041870,213.014877 
	C74.294617,213.016998 64.275024,210.131424 55.870743,203.721085 
	C51.988083,200.759567 49.161560,195.715088 47.263042,191.043304 
	C45.290577,186.189606 44.177246,180.651962 44.136784,175.402237 
	C43.872189,141.074966 44.055595,106.744507 43.962231,72.415451 
	C43.938702,63.764812 46.473515,56.449917 51.758743,49.374664 
	C57.011555,42.342815 63.345623,37.881824 71.596710,35.895477 
	C75.530891,34.948368 79.612099,34.077641 83.626991,34.076366 
	C350.262390,33.991951 616.897827,33.994850 883.533264,34.011074 
	C902.293091,34.012215 918.143921,46.606247 922.755798,64.540596 
	C923.119812,65.956139 922.990845,67.513672 922.991333,69.005234 
	C923.002441,105.334312 923.386902,141.669830 922.782471,177.988846 
	C922.580872,190.100616 916.826538,199.779343 905.561157,206.515717 
	C896.856384,211.720917 887.954224,212.976288 878.448120,212.978333 
	C733.465393,213.009506 588.482727,213.000000 443.000000,213.000000 
M841.811157,83.336739 
	C841.191406,83.521690 840.571594,83.706650 839.085327,83.984360 
	C828.874878,83.781860 821.576233,88.609734 815.633728,96.651657 
	C808.189453,106.725975 807.542603,118.071838 807.956482,129.864532 
	C808.266846,138.706558 811.421631,146.310669 817.296143,152.747009 
	C828.347107,164.854843 842.568237,164.691833 857.080566,162.315674 
	C860.537598,161.749649 863.728638,159.558350 867.899170,157.968643 
	C868.188904,152.124451 868.487488,146.280518 868.653381,140.432816 
	C868.655212,140.369278 866.923401,140.256546 865.254028,140.275528 
	C858.441833,141.516693 851.669312,143.395416 844.806458,143.821564 
	C837.797607,144.256805 833.580261,139.884155 832.669312,132.708252 
	C846.092834,132.708252 859.463196,132.708252 872.989868,132.708252 
	C872.989868,126.461296 873.336670,120.628502 872.859863,114.863823 
	C872.573608,111.402168 871.007507,108.045273 870.007751,104.643883 
	C865.567749,89.537720 855.138550,83.531532 843.849426,83.394081 
	C843.246338,83.556999 842.643188,83.719917 841.811157,83.336739 
M318.345245,116.768700 
	C319.229523,115.771492 320.691956,114.869652 320.875519,113.756836 
	C321.236877,111.566498 320.888214,109.259026 320.572662,106.210526 
	C316.932739,106.740242 313.288910,107.245155 309.655945,107.818947 
	C308.854034,107.945595 308.040771,108.634590 307.317810,108.521355 
	C303.390564,107.906242 299.490021,107.120842 295.242950,106.331367 
	C295.242950,120.853271 295.242950,134.213959 295.242950,147.726715 
	C299.204559,147.726715 302.919617,147.726715 307.000092,147.726715 
	C307.000092,140.849197 306.999969,134.239090 307.000122,127.628975 
	C307.000305,119.547096 309.350372,117.078972 318.345245,116.768700 
M111.936256,129.016525 
	C115.306870,128.713684 118.677490,128.410858 122.857315,128.015518 
	C129.140381,128.507339 136.986649,122.277039 138.900635,114.060341 
	C140.514893,107.130318 136.558609,98.289772 130.630829,94.926743 
	C120.175331,88.994972 109.019447,93.515755 98.386505,91.803612 
	C98.386505,111.088799 98.386505,129.481201 98.386505,147.744843 
	C102.719765,147.744843 106.664070,147.744843 111.042099,147.744843 
	C111.042099,141.370102 111.042099,135.242523 111.936256,129.016525 
M768.213074,84.057068 
	C764.840820,85.449684 761.468628,86.842300 759.028870,87.849823 
	C757.781982,86.745903 756.824158,85.157410 755.810974,85.121323 
	C749.364136,84.891701 742.905090,85.004524 735.999390,85.004524 
	C735.999390,87.071350 735.999451,88.692055 735.999451,90.312767 
	C735.999451,120.143127 735.997864,149.973480 736.000732,179.803848 
	C736.001343,186.190475 737.449280,187.206024 743.834717,185.642044 
	C747.929932,184.638977 752.066467,183.784042 756.213623,183.021088 
	C758.827515,182.540207 760.174561,181.510757 760.065552,178.518738 
	C759.844116,172.440125 759.999451,166.347778 759.999451,159.583160 
	C766.699402,163.068954 772.809448,164.727829 779.814148,163.129807 
	C788.935181,161.048950 795.022522,156.235733 799.218628,147.776871 
	C804.205322,137.724335 804.851196,127.167007 803.745789,116.614685 
	C803.021912,109.704857 800.903503,102.476952 797.564575,96.406311 
	C791.479370,85.342506 781.078613,82.178123 768.213074,84.057068 
M584.633911,82.999512 
	C582.046265,83.335281 579.382568,83.388870 576.885986,84.062340 
	C570.624634,85.751389 564.559021,87.440948 560.655518,93.698959 
	C552.779907,106.325058 554.842468,123.095100 570.153198,129.036209 
	C575.121460,130.964081 580.157471,132.779968 584.923828,135.130829 
	C586.527527,135.921829 587.392883,138.209930 588.595703,139.813782 
	C587.122742,140.884155 585.776489,142.596039 584.155334,142.916382 
	C576.183105,144.491592 569.043213,141.365570 561.916016,138.397324 
	C560.469238,137.794769 558.966919,137.325500 557.000000,136.618591 
	C557.000000,143.477676 557.171021,149.299469 556.930359,155.104187 
	C556.803345,158.168671 557.850708,159.564880 560.836792,160.075058 
	C565.778748,160.919418 570.695862,161.939545 575.585754,163.051529 
	C584.444702,165.066086 592.755066,163.557098 600.481506,159.049362 
	C609.741760,153.646774 612.802551,145.266083 612.087036,134.831467 
	C611.520813,126.574249 606.683594,121.561989 600.099915,118.151299 
	C594.576355,115.289780 588.438599,113.633774 582.696106,111.158043 
	C581.520569,110.651245 580.093811,108.762878 580.239197,107.713181 
	C580.382629,106.678459 582.395020,105.116608 583.550842,105.147652 
	C587.991943,105.266922 592.486938,105.600349 596.829102,106.496750 
	C600.490417,107.252571 603.967896,108.898849 607.997009,110.316429 
	C607.997009,102.880852 608.127625,96.231613 607.876587,89.596817 
	C607.831360,88.402206 606.376770,86.453102 605.296692,86.237839 
	C598.759521,84.934929 592.142090,84.034355 584.633911,82.999512 
M644.148743,142.969101 
	C640.207153,140.957733 638.720764,137.912674 638.896729,133.354477 
	C639.246765,124.286270 639.000305,115.195038 639.000305,105.808746 
	C644.724548,105.808746 649.671753,105.808746 654.695435,105.808746 
	C654.695435,98.752365 654.695435,92.027031 654.695435,84.802704 
	C649.330383,84.802704 644.264465,84.802704 638.731140,84.802704 
	C638.731140,78.571068 638.731140,72.836205 638.731140,66.380981 
	C630.746582,68.156464 623.383118,69.793839 616.000610,71.435455 
	C616.000610,95.214912 615.703491,118.549034 616.159668,141.868423 
	C616.322327,150.180283 620.232788,156.974594 628.271362,161.162079 
	C636.601990,165.501694 644.780151,163.267624 653.049011,161.809418 
	C653.847290,161.668640 654.871826,159.886765 654.907654,158.836548 
	C655.094299,153.369080 654.994690,147.891846 654.994690,142.110443 
	C651.397461,142.428970 648.197388,142.712341 644.148743,142.969101 
M685.000000,129.501083 
	C685.000000,124.844017 685.242737,120.170868 684.935486,115.534172 
	C684.590149,110.322617 687.430420,107.936493 691.886536,107.076569 
	C694.745972,106.524765 697.744263,106.692406 700.997559,106.520813 
	C700.997559,100.233673 700.922424,93.930519 701.030945,87.630539 
	C701.081238,84.710320 699.661743,83.629623 697.043884,84.030922 
	C692.356628,84.749443 687.697388,85.650848 683.406677,86.408653 
	C676.585144,83.400955 669.333252,85.760643 662.287354,85.008003 
	C662.287354,110.949173 662.287354,136.303619 662.287354,161.682739 
	C669.960144,161.682739 677.341553,161.682739 685.000000,161.682739 
	C685.000000,151.078674 685.000000,140.789688 685.000000,129.501083 
M730.000488,150.479584 
	C730.000488,128.725784 730.000488,106.971992 730.000488,85.392075 
	C721.240051,85.392075 713.178101,85.392075 705.259277,85.392075 
	C705.259277,111.057693 705.259277,136.330368 705.259277,161.694870 
	C713.580200,161.694870 721.638367,161.694870 730.000488,161.694870 
	C730.000488,158.086044 730.000488,154.779053 730.000488,150.479584 
M215.732269,106.999969 
	C212.930511,106.765175 211.529587,107.369347 210.768982,110.783913 
	C209.353302,117.139374 206.793549,123.240005 204.592758,129.796066 
	C202.176300,121.909065 199.913528,114.523651 197.705826,107.318016 
	C193.628738,107.318016 189.898560,107.318016 185.426178,107.318016 
	C189.984604,121.272400 194.375793,134.714828 198.655991,147.817474 
	C203.374283,147.817474 207.006866,147.817474 210.519562,147.817474 
	C212.842407,140.286499 215.103668,132.955200 217.724701,124.457504 
	C219.385696,130.145691 220.667435,134.794128 222.102524,139.394714 
	C224.925430,148.444412 224.960663,148.433426 235.789688,147.755402 
	C240.284302,134.455399 244.829285,121.006401 249.562653,106.999886 
	C246.047791,106.999886 243.727646,107.064941 241.412643,106.983673 
	C238.410538,106.878304 236.501724,106.966209 235.707748,111.098579 
	C234.506119,117.352547 231.749252,123.307693 229.596039,129.555710 
	C227.161621,121.876678 224.803619,114.438744 222.445328,106.999847 
	C220.286316,106.999847 218.459030,106.999847 215.732269,106.999969 
M432.999939,110.500137 
	C432.999939,122.916260 432.999939,135.332382 432.999939,148.001053 
	C438.960388,148.001053 444.485565,147.070206 449.550140,148.201401 
	C459.099030,150.334122 468.236206,146.825882 471.557678,137.558746 
	C473.051056,133.392212 472.714142,128.529007 472.969421,123.968575 
	C473.382477,116.589928 469.641693,111.677628 463.448151,108.115875 
	C457.765900,104.848106 452.011414,105.726234 445.812561,107.674568 
	C445.812561,101.244118 445.812561,95.306656 445.812561,89.303673 
	C441.411987,89.303673 437.358032,89.303673 432.999939,89.303673 
	C432.999939,96.235695 432.999939,102.867958 432.999939,110.500137 
M404.000000,103.505165 
	C404.000000,98.745193 404.000000,93.985214 404.000000,89.378754 
	C399.598358,89.378754 395.876160,89.378754 391.879730,89.378754 
	C391.879730,95.669556 391.879730,101.583801 391.879730,107.600853 
	C378.623260,102.474815 366.990570,109.644821 364.241089,121.251068 
	C361.055267,134.699036 369.207214,148.492889 381.498810,148.863892 
	C388.876434,149.086578 396.294037,147.985260 404.000000,147.458038 
	C404.000000,133.099731 404.000000,118.801804 404.000000,103.505165 
M142.984573,120.672981 
	C139.963455,133.578705 143.465744,143.214249 156.006195,147.945633 
	C164.999603,151.338730 181.022537,147.129227 183.869110,136.018234 
	C187.156693,123.185814 184.741425,113.066765 173.238876,107.882896 
	C160.496140,102.140099 145.582108,109.662315 142.984573,120.672981 
M493.505890,125.000587 
	C491.523834,119.704376 489.601410,114.384300 487.500488,109.135651 
	C487.153687,108.269279 486.057556,107.159981 485.252228,107.112961 
	C481.550598,106.896851 477.829315,107.017784 473.368958,107.017784 
	C478.317261,119.275040 482.999603,130.583160 487.382294,142.006241 
	C488.142212,143.986908 488.233643,146.643097 487.597321,148.660324 
	C485.821655,154.289474 483.501892,159.746979 481.199127,165.791382 
	C486.030334,165.791382 489.801910,165.791382 492.706909,165.791382 
	C496.813507,155.820053 500.789398,146.306763 504.652100,136.747711 
	C508.564026,127.066795 512.363953,117.340622 516.464539,106.999863 
	C513.163147,106.999863 510.533661,107.159622 507.931824,106.959839 
	C504.601654,106.704132 502.833160,107.431023 501.714996,111.218994 
	C499.894196,117.387146 496.899567,123.208794 494.157379,129.756760 
	C494.055176,127.968117 493.989441,126.818001 493.505890,125.000587 
M346.324036,139.921890 
	C340.882904,139.141052 335.779755,137.880493 333.841400,130.858124 
	C342.819275,130.858124 351.344635,130.858124 359.998688,130.858124 
	C359.998688,127.101677 360.101898,123.941269 359.976410,120.789970 
	C359.742004,114.902618 355.298676,108.633858 349.745697,107.073822 
	C336.713898,103.412704 322.201660,108.386436 322.134918,126.305786 
	C322.112946,132.201706 322.140198,138.985840 326.989746,143.171555 
	C332.087402,147.571396 338.659241,149.528107 345.638000,148.988754 
	C357.085815,148.104050 358.770172,146.369492 357.778595,136.641754 
	C357.764008,136.498520 357.631470,136.367325 357.397888,135.954956 
	C353.981445,137.116043 350.497650,138.300034 346.324036,139.921890 
M281.951477,111.432594 
	C280.418365,110.571373 278.673798,109.948280 277.389038,108.807404 
	C272.058990,104.074333 263.184601,105.807236 259.041016,108.621361 
	C250.224960,114.608795 247.663620,125.545853 252.018478,137.270325 
	C255.114838,145.606567 262.079987,149.331757 273.575439,148.901718 
	C285.039398,148.472885 286.718719,146.428177 285.790222,136.673950 
	C285.775757,136.521698 285.657227,136.379349 285.386810,135.811417 
	C282.583344,136.848587 279.800323,138.425018 276.860382,138.813507 
	C273.863586,139.209518 270.414398,139.130997 267.716644,137.972153 
	C265.257233,136.915695 263.539368,134.132950 261.494659,132.111099 
	C261.790863,131.693222 262.087097,131.275330 262.383331,130.857452 
	C271.142548,130.857452 279.901794,130.857452 288.868347,130.857452 
	C289.077759,123.454407 290.428833,116.155075 281.951477,111.432594 
M705.559692,80.840919 
	C710.203979,80.154236 714.914612,79.759430 719.479187,78.722076 
	C730.029541,76.324379 730.000854,76.198090 730.000549,64.940773 
	C730.000488,63.945248 730.010925,62.949589 729.998657,61.954216 
	C729.940186,57.219559 728.549194,56.053505 723.908203,57.079884 
	C717.646667,58.464653 711.409302,59.958569 705.081970,61.424084 
	C705.081970,67.800552 705.081970,73.926178 705.559692,80.840919 
z"/>
<path fill="#665BFF" opacity="1.000000" stroke="none" 
	d="
M768.561096,84.218033 
	C781.078613,82.178123 791.479370,85.342506 797.564575,96.406311 
	C800.903503,102.476952 803.021912,109.704857 803.745789,116.614685 
	C804.851196,127.167007 804.205322,137.724335 799.218628,147.776871 
	C795.022522,156.235733 788.935181,161.048950 779.814148,163.129807 
	C772.809448,164.727829 766.699402,163.068954 759.999451,159.583160 
	C759.999451,166.347778 759.844116,172.440125 760.065552,178.518738 
	C760.174561,181.510757 758.827515,182.540207 756.213623,183.021088 
	C752.066467,183.784042 747.929932,184.638977 743.834717,185.642044 
	C737.449280,187.206024 736.001343,186.190475 736.000732,179.803848 
	C735.997864,149.973480 735.999451,120.143127 735.999451,90.312767 
	C735.999451,88.692055 735.999390,87.071350 735.999390,85.004524 
	C742.905090,85.004524 749.364136,84.891701 755.810974,85.121323 
	C756.824158,85.157410 757.781982,86.745903 759.028870,87.849823 
	C761.468628,86.842300 764.840820,85.449684 768.561096,84.218033 
M768.416748,105.001091 
	C762.389282,105.652885 760.004883,108.200554 760.001099,114.010918 
	C759.996460,121.172173 759.826111,128.340576 760.119629,135.489777 
	C760.195190,137.331146 761.276917,139.705811 762.694763,140.814789 
	C767.922302,144.903564 774.346375,143.115158 778.002686,137.068405 
	C780.952759,132.189636 780.993591,126.871239 781.084961,121.401482 
	C781.200745,114.474129 776.456177,106.251259 768.416748,105.001091 
z"/>
<path fill="#665BFF" opacity="1.000000" stroke="none" 
	d="
M844.040405,83.882812 
	C855.138550,83.531532 865.567749,89.537720 870.007751,104.643883 
	C871.007507,108.045273 872.573608,111.402168 872.859863,114.863823 
	C873.336670,120.628502 872.989868,126.461296 872.989868,132.708252 
	C859.463196,132.708252 846.092834,132.708252 832.669312,132.708252 
	C833.580261,139.884155 837.797607,144.256805 844.806458,143.821564 
	C851.669312,143.395416 858.441833,141.516693 865.721069,140.617447 
	C866.472778,146.677780 866.757385,152.396179 867.041992,158.114594 
	C863.728638,159.558350 860.537598,161.749649 857.080566,162.315674 
	C842.568237,164.691833 828.347107,164.854843 817.296143,152.747009 
	C811.421631,146.310669 808.266846,138.706558 807.956482,129.864532 
	C807.542603,118.071838 808.189453,106.725975 815.633728,96.651657 
	C821.576233,88.609734 828.874878,83.781860 839.736450,84.138725 
	C840.925049,84.528732 841.462524,84.764374 842.211548,85.122513 
	C842.962280,84.790955 843.501343,84.336891 844.040405,83.882812 
M844.916138,104.416115 
	C837.299316,102.211082 833.302673,105.102165 832.229736,113.719101 
	C838.426392,113.719101 844.603149,113.719101 850.779846,113.719101 
	C851.133850,113.352150 851.487915,112.985199 851.841919,112.618256 
	C849.727783,110.051956 847.613586,107.485657 844.916138,104.416115 
z"/>
<path fill="#665BFF" opacity="1.000000" stroke="none" 
	d="
M585.092712,82.999405 
	C592.142090,84.034355 598.759521,84.934929 605.296692,86.237839 
	C606.376770,86.453102 607.831360,88.402206 607.876587,89.596817 
	C608.127625,96.231613 607.997009,102.880852 607.997009,110.316429 
	C603.967896,108.898849 600.490417,107.252571 596.829102,106.496750 
	C592.486938,105.600349 587.991943,105.266922 583.550842,105.147652 
	C582.395020,105.116608 580.382629,106.678459 580.239197,107.713181 
	C580.093811,108.762878 581.520569,110.651245 582.696106,111.158043 
	C588.438599,113.633774 594.576355,115.289780 600.099915,118.151299 
	C606.683594,121.561989 611.520813,126.574249 612.087036,134.831467 
	C612.802551,145.266083 609.741760,153.646774 600.481506,159.049362 
	C592.755066,163.557098 584.444702,165.066086 575.585754,163.051529 
	C570.695862,161.939545 565.778748,160.919418 560.836792,160.075058 
	C557.850708,159.564880 556.803345,158.168671 556.930359,155.104187 
	C557.171021,149.299469 557.000000,143.477676 557.000000,136.618591 
	C558.966919,137.325500 560.469238,137.794769 561.916016,138.397324 
	C569.043213,141.365570 576.183105,144.491592 584.155334,142.916382 
	C585.776489,142.596039 587.122742,140.884155 588.595703,139.813782 
	C587.392883,138.209930 586.527527,135.921829 584.923828,135.130829 
	C580.157471,132.779968 575.121460,130.964081 570.153198,129.036209 
	C554.842468,123.095100 552.779907,106.325058 560.655518,93.698959 
	C564.559021,87.440948 570.624634,85.751389 576.885986,84.062340 
	C579.382568,83.388870 582.046265,83.335281 585.092712,82.999405 
z"/>
<path fill="#665BFF" opacity="1.000000" stroke="none" 
	d="
M644.572998,142.982407 
	C648.197388,142.712341 651.397461,142.428970 654.994690,142.110443 
	C654.994690,147.891846 655.094299,153.369080 654.907654,158.836548 
	C654.871826,159.886765 653.847290,161.668640 653.049011,161.809418 
	C644.780151,163.267624 636.601990,165.501694 628.271362,161.162079 
	C620.232788,156.974594 616.322327,150.180283 616.159668,141.868423 
	C615.703491,118.549034 616.000610,95.214912 616.000610,71.435455 
	C623.383118,69.793839 630.746582,68.156464 638.731140,66.380981 
	C638.731140,72.836205 638.731140,78.571068 638.731140,84.802704 
	C644.264465,84.802704 649.330383,84.802704 654.695435,84.802704 
	C654.695435,92.027031 654.695435,98.752365 654.695435,105.808746 
	C649.671753,105.808746 644.724548,105.808746 639.000305,105.808746 
	C639.000305,115.195038 639.246765,124.286270 638.896729,133.354477 
	C638.720764,137.912674 640.207153,140.957733 644.572998,142.982407 
z"/>
<path fill="#665BFF" opacity="1.000000" stroke="none" 
	d="
M685.000000,130.000885 
	C685.000000,140.789688 685.000000,151.078674 685.000000,161.682739 
	C677.341553,161.682739 669.960144,161.682739 662.287354,161.682739 
	C662.287354,136.303619 662.287354,110.949173 662.287354,85.008003 
	C669.333252,85.760643 676.585144,83.400955 683.406677,86.408653 
	C687.697388,85.650848 692.356628,84.749443 697.043884,84.030922 
	C699.661743,83.629623 701.081238,84.710320 701.030945,87.630539 
	C700.922424,93.930519 700.997559,100.233673 700.997559,106.520813 
	C697.744263,106.692406 694.745972,106.524765 691.886536,107.076569 
	C687.430420,107.936493 684.590149,110.322617 684.935486,115.534172 
	C685.242737,120.170868 685.000000,124.844017 685.000000,130.000885 
z"/>
<path fill="#665BFF" opacity="1.000000" stroke="none" 
	d="
M730.000488,150.975830 
	C730.000488,154.779053 730.000488,158.086044 730.000488,161.694870 
	C721.638367,161.694870 713.580200,161.694870 705.259277,161.694870 
	C705.259277,136.330368 705.259277,111.057693 705.259277,85.392075 
	C713.178101,85.392075 721.240051,85.392075 730.000488,85.392075 
	C730.000488,106.971992 730.000488,128.725784 730.000488,150.975830 
z"/>
<path fill="#665BFF" opacity="1.000000" stroke="none" 
	d="
M216.182007,106.999908 
	C218.459030,106.999847 220.286316,106.999847 222.445328,106.999847 
	C224.803619,114.438744 227.161621,121.876678 229.596039,129.555710 
	C231.749252,123.307693 234.506119,117.352547 235.707748,111.098579 
	C236.501724,106.966209 238.410538,106.878304 241.412643,106.983673 
	C243.727646,107.064941 246.047791,106.999886 249.562653,106.999886 
	C244.829285,121.006401 240.284302,134.455399 235.789688,147.755402 
	C224.960663,148.433426 224.925430,148.444412 222.102524,139.394714 
	C220.667435,134.794128 219.385696,130.145691 217.724701,124.457504 
	C215.103668,132.955200 212.842407,140.286499 210.519562,147.817474 
	C207.006866,147.817474 203.374283,147.817474 198.655991,147.817474 
	C194.375793,134.714828 189.984604,121.272400 185.426178,107.318016 
	C189.898560,107.318016 193.628738,107.318016 197.705826,107.318016 
	C199.913528,114.523651 202.176300,121.909065 204.592758,129.796066 
	C206.793549,123.240005 209.353302,117.139374 210.768982,110.783913 
	C211.529587,107.369347 212.930511,106.765175 216.182007,106.999908 
z"/>
<path fill="#665BFF" opacity="1.000000" stroke="none" 
	d="
M432.999939,110.000183 
	C432.999939,102.867958 432.999939,96.235695 432.999939,89.303673 
	C437.358032,89.303673 441.411987,89.303673 445.812561,89.303673 
	C445.812561,95.306656 445.812561,101.244118 445.812561,107.674568 
	C452.011414,105.726234 457.765900,104.848106 463.448151,108.115875 
	C469.641693,111.677628 473.382477,116.589928 472.969421,123.968575 
	C472.714142,128.529007 473.051056,133.392212 471.557678,137.558746 
	C468.236206,146.825882 459.099030,150.334122 449.550140,148.201401 
	C444.485565,147.070206 438.960388,148.001053 432.999939,148.001053 
	C432.999939,135.332382 432.999939,122.916260 432.999939,110.000183 
M459.963257,133.943451 
	C459.975464,130.281189 460.127045,126.612625 459.961700,122.958397 
	C459.787018,119.098686 456.066254,115.753532 452.561462,116.010910 
	C447.921539,116.351639 446.024597,118.447380 446.003357,123.291573 
	C445.988800,126.613800 445.922455,129.938568 446.023865,133.257782 
	C446.126587,136.620163 450.951294,139.797745 454.042877,138.396713 
	C456.079498,137.473755 457.852753,135.969635 459.963257,133.943451 
z"/>
<path fill="#665BFF" opacity="1.000000" stroke="none" 
	d="
M404.000000,104.004517 
	C404.000000,118.801804 404.000000,133.099731 404.000000,147.458038 
	C396.294037,147.985260 388.876434,149.086578 381.498810,148.863892 
	C369.207214,148.492889 361.055267,134.699036 364.241089,121.251068 
	C366.990570,109.644821 378.623260,102.474815 391.879730,107.600853 
	C391.879730,101.583801 391.879730,95.669556 391.879730,89.378754 
	C395.876160,89.378754 399.598358,89.378754 404.000000,89.378754 
	C404.000000,93.985214 404.000000,98.745193 404.000000,104.004517 
M391.791443,135.653610 
	C391.791443,129.871948 391.791443,124.090302 391.791443,117.279129 
	C389.031586,117.132416 386.032806,116.177956 383.645660,116.999847 
	C377.279510,119.191658 374.720978,127.353203 378.058075,133.171387 
	C381.425537,139.042435 385.859436,140.083542 391.791443,135.653610 
z"/>
<path fill="#665BFF" opacity="1.000000" stroke="none" 
	d="
M111.042099,129.114944 
	C111.042099,135.242523 111.042099,141.370102 111.042099,147.744843 
	C106.664070,147.744843 102.719765,147.744843 98.386505,147.744843 
	C98.386505,129.481201 98.386505,111.088799 98.386505,91.803612 
	C109.019447,93.515755 120.175331,88.994972 130.630829,94.926743 
	C136.558609,98.289772 140.514893,107.130318 138.900635,114.060341 
	C136.986649,122.277039 129.140381,128.507339 122.180237,127.800667 
	C117.650673,125.595261 113.904198,124.330017 111.042099,129.114944 
M111.713287,117.863098 
	C114.036003,117.907890 116.719193,118.710793 118.596237,117.818283 
	C121.352661,116.507637 124.607895,114.401474 125.599564,111.840149 
	C126.320457,109.978157 124.275894,106.327507 122.484695,104.371414 
	C119.448601,101.055840 115.208786,101.682579 111.107384,102.415878 
	C111.107384,107.542702 111.107384,112.345680 111.713287,117.863098 
z"/>
<path fill="#665BFF" opacity="1.000000" stroke="none" 
	d="
M142.993958,120.251953 
	C145.582108,109.662315 160.496140,102.140099 173.238876,107.882896 
	C184.741425,113.066765 187.156693,123.185814 183.869110,136.018234 
	C181.022537,147.129227 164.999603,151.338730 156.006195,147.945633 
	C143.465744,143.214249 139.963455,133.578705 142.993958,120.251953 
M165.017838,116.041679 
	C157.669373,116.001984 155.010544,118.655670 155.000626,126.042419 
	C154.998169,127.873413 154.898819,129.711334 155.021805,131.534073 
	C155.353821,136.454178 161.235641,139.845795 165.765854,138.094437 
	C170.029800,136.446014 171.654572,133.220047 171.972870,129.083588 
	C172.389420,123.670479 171.151215,118.955444 165.017838,116.041679 
z"/>
<path fill="#665BFF" opacity="1.000000" stroke="none" 
	d="
M493.714813,125.334244 
	C493.989441,126.818001 494.055176,127.968117 494.157379,129.756760 
	C496.899567,123.208794 499.894196,117.387146 501.714996,111.218994 
	C502.833160,107.431023 504.601654,106.704132 507.931824,106.959839 
	C510.533661,107.159622 513.163147,106.999863 516.464539,106.999863 
	C512.363953,117.340622 508.564026,127.066795 504.652100,136.747711 
	C500.789398,146.306763 496.813507,155.820053 492.706909,165.791382 
	C489.801910,165.791382 486.030334,165.791382 481.199127,165.791382 
	C483.501892,159.746979 485.821655,154.289474 487.597321,148.660324 
	C488.233643,146.643097 488.142212,143.986908 487.382294,142.006241 
	C482.999603,130.583160 478.317261,119.275040 473.368958,107.017784 
	C477.829315,107.017784 481.550598,106.896851 485.252228,107.112961 
	C486.057556,107.159981 487.153687,108.269279 487.500488,109.135651 
	C489.601410,114.384300 491.523834,119.704376 493.714813,125.334244 
z"/>
<path fill="#665BFF" opacity="1.000000" stroke="none" 
	d="
M346.668945,139.702957 
	C350.497650,138.300034 353.981445,137.116043 357.397888,135.954956 
	C357.631470,136.367325 357.764008,136.498520 357.778595,136.641754 
	C358.770172,146.369492 357.085815,148.104050 345.638000,148.988754 
	C338.659241,149.528107 332.087402,147.571396 326.989746,143.171555 
	C322.140198,138.985840 322.112946,132.201706 322.134918,126.305786 
	C322.201660,108.386436 336.713898,103.412704 349.745697,107.073822 
	C355.298676,108.633858 359.742004,114.902618 359.976410,120.789970 
	C360.101898,123.941269 359.998688,127.101677 359.998688,130.858124 
	C351.344635,130.858124 342.819275,130.858124 333.841400,130.858124 
	C335.779755,137.880493 340.882904,139.141052 346.668945,139.702957 
M347.023560,117.540863 
	C341.325165,113.426926 336.782349,115.028313 334.745667,121.846878 
	C339.370728,121.846878 344.002106,121.846878 349.050781,121.846878 
	C348.491455,120.416504 348.038300,119.257629 347.023560,117.540863 
z"/>
<path fill="#665BFF" opacity="1.000000" stroke="none" 
	d="
M282.208008,111.703995 
	C290.428833,116.155075 289.077759,123.454407 288.868347,130.857452 
	C279.901794,130.857452 271.142548,130.857452 262.383331,130.857452 
	C262.087097,131.275330 261.790863,131.693222 261.494659,132.111099 
	C263.539368,134.132950 265.257233,136.915695 267.716644,137.972153 
	C270.414398,139.130997 273.863586,139.209518 276.860382,138.813507 
	C279.800323,138.425018 282.583344,136.848587 285.386810,135.811417 
	C285.657227,136.379349 285.775757,136.521698 285.790222,136.673950 
	C286.718719,146.428177 285.039398,148.472885 273.575439,148.901718 
	C262.079987,149.331757 255.114838,145.606567 252.018478,137.270325 
	C247.663620,125.545853 250.224960,114.608795 259.041016,108.621361 
	C263.184601,105.807236 272.058990,104.074333 277.389038,108.807404 
	C278.673798,109.948280 280.418365,110.571373 282.208008,111.703995 
M266.171143,116.337318 
	C264.836304,118.032326 263.501465,119.727333 261.835083,121.843338 
	C267.360565,121.843338 271.969452,121.843338 276.565277,121.843338 
	C276.984680,115.981392 273.046692,113.682243 266.171143,116.337318 
z"/>
<path fill="#665BFF" opacity="1.000000" stroke="none" 
	d="
M317.960236,116.117714 
	C309.350372,117.078972 307.000305,119.547096 307.000122,127.628975 
	C306.999969,134.239090 307.000092,140.849197 307.000092,147.726715 
	C302.919617,147.726715 299.204559,147.726715 295.242950,147.726715 
	C295.242950,134.213959 295.242950,120.853271 295.242950,106.331367 
	C299.490021,107.120842 303.390564,107.906242 307.317810,108.521355 
	C308.040771,108.634590 308.854034,107.945595 309.655945,107.818947 
	C313.288910,107.245155 316.932739,106.740242 320.356354,106.724464 
	C319.413422,110.198174 318.686829,113.157944 317.960236,116.117714 
z"/>
<path fill="#665BFF" opacity="1.000000" stroke="none" 
	d="
M705.320801,80.446365 
	C705.081970,73.926178 705.081970,67.800552 705.081970,61.424084 
	C711.409302,59.958569 717.646667,58.464653 723.908203,57.079884 
	C728.549194,56.053505 729.940186,57.219559 729.998657,61.954216 
	C730.010925,62.949589 730.000488,63.945248 730.000549,64.940773 
	C730.000854,76.198090 730.029541,76.324379 719.479187,78.722076 
	C714.914612,79.759430 710.203979,80.154236 705.320801,80.446365 
z"/>
<path fill="#675BFF" opacity="1.000000" stroke="none" 
	d="
M867.470581,158.041626 
	C866.757385,152.396179 866.472778,146.677780 866.094482,140.563080 
	C866.923401,140.256546 868.655212,140.369278 868.653381,140.432816 
	C868.487488,146.280518 868.188904,152.124451 867.470581,158.041626 
z"/>
<path fill="#665BFF" opacity="1.000000" stroke="none" 
	d="
M111.489182,129.065735 
	C113.904198,124.330017 117.650673,125.595261 121.775635,127.846924 
	C118.677490,128.410858 115.306870,128.713684 111.489182,129.065735 
z"/>
<path fill="#665BFF" opacity="1.000000" stroke="none" 
	d="
M318.152740,116.443207 
	C318.686829,113.157944 319.413422,110.198174 320.486664,107.119202 
	C320.888214,109.259026 321.236877,111.566498 320.875519,113.756836 
	C320.691956,114.869652 319.229523,115.771492 318.152740,116.443207 
z"/>
<path fill="#665BFF" opacity="1.000000" stroke="none" 
	d="
M843.944946,83.638458 
	C843.501343,84.336891 842.962280,84.790955 842.221436,84.843216 
	C842.026489,84.255211 842.033325,84.069023 842.040100,83.882828 
	C842.643188,83.719917 843.246338,83.556999 843.944946,83.638458 
z"/>
<path fill="#675BFF" opacity="1.000000" stroke="none" 
	d="
M841.925659,83.609787 
	C842.033325,84.069023 842.026489,84.255211 842.009888,84.720711 
	C841.462524,84.764374 840.925049,84.528732 840.169678,84.092346 
	C840.571594,83.706650 841.191406,83.521690 841.925659,83.609787 
z"/>
<path fill="#ffffff" opacity="1.000000" stroke="none" 
	d="
M768.821777,105.003700 
	C776.456177,106.251259 781.200745,114.474129 781.084961,121.401482 
	C780.993591,126.871239 780.952759,132.189636 778.002686,137.068405 
	C774.346375,143.115158 767.922302,144.903564 762.694763,140.814789 
	C761.276917,139.705811 760.195190,137.331146 760.119629,135.489777 
	C759.826111,128.340576 759.996460,121.172173 760.001099,114.010918 
	C760.004883,108.200554 762.389282,105.652885 768.821777,105.003700 
z"/>
<path fill="#ffffff" opacity="1.000000" stroke="none" 
	d="
M845.207764,104.667740 
	C847.613586,107.485657 849.727783,110.051956 851.841919,112.618256 
	C851.487915,112.985199 851.133850,113.352150 850.779846,113.719101 
	C844.603149,113.719101 838.426392,113.719101 832.229736,113.719101 
	C833.302673,105.102165 837.299316,102.211082 845.207764,104.667740 
z"/>
<path fill="#ffffff" opacity="1.000000" stroke="none" 
	d="
M459.853607,134.334595 
	C457.852753,135.969635 456.079498,137.473755 454.042877,138.396713 
	C450.951294,139.797745 446.126587,136.620163 446.023865,133.257782 
	C445.922455,129.938568 445.988800,126.613800 446.003357,123.291573 
	C446.024597,118.447380 447.921539,116.351639 452.561462,116.010910 
	C456.066254,115.753532 459.787018,119.098686 459.961700,122.958397 
	C460.127045,126.612625 459.975464,130.281189 459.853607,134.334595 
z"/>
<path fill="#ffffff" opacity="1.000000" stroke="none" 
	d="
M391.487427,135.953430 
	C385.859436,140.083542 381.425537,139.042435 378.058075,133.171387 
	C374.720978,127.353203 377.279510,119.191658 383.645660,116.999847 
	C386.032806,116.177956 389.031586,117.132416 391.791443,117.279129 
	C391.791443,124.090302 391.791443,129.871948 391.487427,135.953430 
z"/>
<path fill="#ffffff" opacity="1.000000" stroke="none" 
	d="
M111.410339,117.505875 
	C111.107384,112.345680 111.107384,107.542702 111.107384,102.415878 
	C115.208786,101.682579 119.448601,101.055840 122.484695,104.371414 
	C124.275894,106.327507 126.320457,109.978157 125.599564,111.840149 
	C124.607895,114.401474 121.352661,116.507637 118.596237,117.818283 
	C116.719193,118.710793 114.036003,117.907890 111.410339,117.505875 
z"/>
<path fill="#ffffff" opacity="1.000000" stroke="none" 
	d="
M165.400635,116.167023 
	C171.151215,118.955444 172.389420,123.670479 171.972870,129.083588 
	C171.654572,133.220047 170.029800,136.446014 165.765854,138.094437 
	C161.235641,139.845795 155.353821,136.454178 155.021805,131.534073 
	C154.898819,129.711334 154.998169,127.873413 155.000626,126.042419 
	C155.010544,118.655670 157.669373,116.001984 165.400635,116.167023 
z"/>
<path fill="#ffffff" opacity="1.000000" stroke="none" 
	d="
M347.304321,117.819809 
	C348.038300,119.257629 348.491455,120.416504 349.050781,121.846878 
	C344.002106,121.846878 339.370728,121.846878 334.745667,121.846878 
	C336.782349,115.028313 341.325165,113.426926 347.304321,117.819809 
z"/>
<path fill="#ffffff" opacity="1.000000" stroke="none" 
	d="
M266.524231,116.181000 
	C273.046692,113.682243 276.984680,115.981392 276.565277,121.843338 
	C271.969452,121.843338 267.360565,121.843338 261.835083,121.843338 
	C263.501465,119.727333 264.836304,118.032326 266.524231,116.181000 
z"/>
</svg>