<svg width="16" height="16" viewBox="0 0 16 16" fill="none" xmlns="http://www.w3.org/2000/svg">
<path d="M9.4375 9.2625H6.8125C4.12707 9.2625 1.95 11.4396 1.95 14.125C1.95 14.6358 2.36422 15.05 2.875 15.05H13.375C13.8858 15.05 14.3 14.6358 14.3 14.125C14.3 11.4396 12.1229 9.2625 9.4375 9.2625ZM12.853 13.6375H3.39669C3.63425 11.9641 5.07464 10.675 6.8125 10.675H9.4375C11.1742 10.675 12.6154 11.9654 12.853 13.6375ZM8.125 8.05C10.0855 8.05 11.675 6.46054 11.675 4.5C11.675 2.53946 10.0855 0.95 8.125 0.95C6.16446 0.95 4.575 2.53946 4.575 4.5C4.575 6.46082 6.16418 8.05 8.125 8.05ZM8.125 2.3625C9.30352 2.3625 10.2625 3.32148 10.2625 4.5C10.2625 5.67852 9.30352 6.6375 8.125 6.6375C6.94649 6.6375 5.9875 5.67825 5.9875 4.5C5.9875 3.32149 6.94675 2.3625 8.125 2.3625Z" fill="#6B7280" stroke="#6B7280" stroke-width="0.1"/>
</svg>
