<svg width="16" height="16" viewBox="0 0 16 16" fill="none" xmlns="http://www.w3.org/2000/svg">
<g id="Group User">
<path id="Vector" d="M7.99781 9.10938C9.25366 9.10938 10.2531 8.07496 10.2531 6.79883C10.2531 5.5227 9.23506 4.48828 7.99781 4.48828C6.74197 4.48828 5.7425 5.5227 5.7425 6.79883C5.72281 8.07407 6.74219 9.10938 7.99781 9.10938ZM7.99781 5.55469C8.67266 5.55469 9.22194 6.11277 9.22194 6.79883C9.22194 7.48488 8.67156 8.04297 7.99781 8.04297C7.32406 8.04297 6.77281 7.48533 6.77281 6.79883C6.77281 6.11233 7.32187 5.55469 7.99781 5.55469ZM12.2 5.55469C13.1664 5.55469 13.95 4.75888 13.95 3.77734C13.95 2.79581 13.1669 2 12.2 2C11.2336 2 10.45 2.79581 10.45 3.77734C10.45 4.75888 11.2331 5.55469 12.2 5.55469ZM9.09156 9.82031H6.90844C5.19125 9.82031 3.8 11.1467 3.8 12.7818C3.8 13.1106 4.07781 13.375 4.42125 13.375H11.5787C11.9222 13.375 12.2 13.1106 12.2 12.7818C12.2 11.1467 10.8088 9.82031 9.09156 9.82031ZM4.89594 12.3086C5.12497 11.4919 5.93194 10.8867 6.88962 10.8867H9.09156C10.049 10.8867 10.856 11.4919 11.0852 12.3086H4.89594ZM13.0728 6.26562H11.7201C11.4401 6.26562 11.1758 6.3331 10.9356 6.44869C10.9488 6.56555 10.9706 6.67886 10.9706 6.79883C10.9706 7.54776 10.6911 8.22537 10.2452 8.75391H14.6137C14.8272 8.75391 15 8.56729 15 8.33845C15 7.19429 14.1381 6.26562 13.0728 6.26562ZM5.02281 6.79883C5.02281 6.67777 5.0443 6.56266 5.05801 6.44536C4.81938 6.31228 4.55687 6.26562 4.27906 6.26562H2.92675C1.86275 6.26562 1 7.19429 1 8.33845C1 8.56729 1.17253 8.75391 1.38544 8.75391H5.7495C5.30281 8.22515 5.02281 7.54753 5.02281 6.79883ZM3.8 5.55469C4.76644 5.55469 5.55 4.75888 5.55 3.77734C5.55 2.79581 4.76688 2 3.8 2C2.83356 2 2.05 2.79581 2.05 3.77734C2.05 4.75888 2.83356 5.55469 3.8 5.55469Z" fill="#6B7280"/>
</g>
</svg>
