<svg width="24" height="24" viewBox="0 0 24 24" fill="none" xmlns="http://www.w3.org/2000/svg">
<g id="Group User">
<path id="Vector" d="M11.9967 13.6641C13.8805 13.6641 15.3797 12.1124 15.3797 10.1982C15.3797 8.28404 13.8526 6.73242 11.9967 6.73242C10.113 6.73242 8.61375 8.28404 8.61375 10.1982C8.58422 12.1111 10.1133 13.6641 11.9967 13.6641ZM11.9967 8.33203C13.009 8.33203 13.8329 9.16916 13.8329 10.1982C13.8329 11.2273 13.0073 12.0645 11.9967 12.0645C10.9861 12.0645 10.1592 11.228 10.1592 10.1982C10.1592 9.16849 10.9828 8.33203 11.9967 8.33203ZM18.3 8.33203C19.7497 8.33203 20.925 7.13832 20.925 5.66602C20.925 4.19371 19.7503 3 18.3 3C16.8503 3 15.675 4.19371 15.675 5.66602C15.675 7.13832 16.8497 8.33203 18.3 8.33203ZM13.6373 14.7305H10.3627C7.78687 14.7305 5.7 16.72 5.7 19.1727C5.7 19.6659 6.11672 20.0625 6.63187 20.0625H17.3681C17.8833 20.0625 18.3 19.6659 18.3 19.1727C18.3 16.72 16.2131 14.7305 13.6373 14.7305ZM7.34391 18.4629C7.68745 17.2379 8.89791 16.3301 10.3344 16.3301H13.6373C15.0735 16.3301 16.284 17.2379 16.6279 18.4629H7.34391ZM19.6092 9.39844H17.5801C17.1601 9.39844 16.7637 9.49965 16.4034 9.67304C16.4231 9.84833 16.4559 10.0183 16.4559 10.1982C16.4559 11.3216 16.0366 12.3381 15.3679 13.1309H21.9205C22.2408 13.1309 22.5 12.8509 22.5 12.5077C22.5 10.7914 21.2072 9.39844 19.6092 9.39844ZM7.53422 10.1982C7.53422 10.0167 7.56645 9.844 7.58701 9.66804C7.22906 9.46842 6.83531 9.39844 6.41859 9.39844H4.39013C2.79413 9.39844 1.5 10.7914 1.5 12.5077C1.5 12.8509 1.75879 13.1309 2.07816 13.1309H8.62425C7.95422 12.3377 7.53422 11.3213 7.53422 10.1982ZM5.7 8.33203C7.14966 8.33203 8.325 7.13832 8.325 5.66602C8.325 4.19371 7.15031 3 5.7 3C4.25034 3 3.075 4.19371 3.075 5.66602C3.075 7.13832 4.25034 8.33203 5.7 8.33203Z" fill="#6950E8"/>
</g>
</svg>
