<svg width="81" height="20" viewBox="0 0 81 20" fill="none" xmlns="http://www.w3.org/2000/svg">
<path d="M19.4014 2.673H19.3989L19.4014 2.67045C18.8513 2.87842 18.2441 2.87842 17.6939 2.67045L17.6914 2.6679C15.7184 7.61947 13.4442 13.2066 11.3998 17.3746L11.4177 17.3695L11.4075 17.3746C12.3416 17.1423 13.2349 17.2138 13.8245 17.3746L13.8194 17.372H13.822L15.5295 13.0611L15.5321 13.0636C17.5403 13.0011 19.55 13.0011 21.5582 13.0636C22.1299 14.5006 22.7016 15.9376 23.2606 17.3771C24.1539 17.1423 25.0447 17.2061 25.7032 17.372H25.7058H25.7032C24.2305 14.6206 21.2749 7.42294 19.3938 2.67045L19.4014 2.673ZM21.1524 12.0401C19.4142 12.1014 17.676 12.1014 15.9404 12.0401C16.8472 9.77733 17.716 7.49946 18.5464 5.20749C19.3802 7.50003 20.2515 9.77874 21.16 12.0427L21.1524 12.0401ZM11.3998 17.3822L11.4075 17.3797L11.3998 17.3822V17.3848V17.3822ZM14.9476 0.717896H14.945C14.1348 0.920931 13.2871 0.920931 12.4769 0.717896C11.7801 2.01449 9.21243 6.21312 7.57637 8.90075C5.91734 6.15442 3.95458 2.98439 2.67585 0.717896C1.66256 0.934846 1.23632 0.947608 0.225586 0.717896C2.23429 3.74499 5.45281 9.50821 6.54777 11.4021L6.40229 19.2914C6.40229 19.2914 7.10929 19.174 7.58148 19.174C8.10471 19.174 8.75556 19.2914 8.75556 19.2914L8.60752 11.4021C10.6494 7.81855 14.0236 1.9711 14.9476 0.717896ZM47.9598 2.47902C42.7606 2.47902 40.0347 5.77412 40.0347 10.0468C40.0347 14.7227 43.0107 17.5737 47.9521 17.5737C53.2942 17.5737 55.9027 14.3602 55.9027 10.0953C55.9027 5.34021 52.7888 2.47902 47.9623 2.47902H47.9598ZM47.9751 16.7441C44.509 16.7441 42.4747 14.2607 42.4747 10.0723C42.4747 5.33511 44.9837 3.4285 47.8321 3.36979H47.9674C51.1451 3.36979 53.4805 5.53419 53.4805 10.0595C53.4805 14.5772 51.1502 16.7416 47.9751 16.7416V16.7441ZM76.661 16.9994C75.8902 16.9994 75.5048 17.5864 75.5048 18.2194C75.5048 18.9647 76.0995 19.3475 76.8371 19.3475C77.3706 19.3475 77.9499 19.0234 77.9499 18.1454C77.9499 17.4409 77.3986 16.9994 76.661 16.9994ZM79.4737 0.932295C79.4737 0.932295 79.3206 0.911875 79.2185 0.911875C78.6314 0.911875 78.0469 1.25644 78.0469 2.13701C77.6973 6.56279 77.3348 10.9988 76.7376 15.2204L76.735 15.2229H76.7401C77.0521 15.179 77.3702 15.2287 77.6539 15.3659L77.6513 15.3633C78.3302 11.0754 79.9408 4.65108 80.3517 2.8338C80.4104 2.57856 80.4997 2.27483 80.4997 2.06043C80.4997 1.41214 80.0888 1.03439 79.4737 0.932295ZM65.9054 1.59591C60.7292 1.59591 56.773 4.53622 56.773 10.0008C56.773 14.5032 59.4045 18.467 65.9488 18.467C71.4899 18.467 75.1066 15.422 75.1066 10.0799C75.1066 5.04414 71.7324 1.59591 65.9054 1.59591ZM65.9181 17.5762C62.4137 17.5762 59.2208 15.519 59.2208 9.96764C59.2208 4.21207 62.7609 2.50965 65.913 2.50965C69.8003 2.50965 72.664 4.87058 72.664 10.0799C72.664 15.7411 69.2005 17.5788 65.9207 17.5788L65.9181 17.5762ZM36.88 2.67811C36.9999 4.96247 37.0586 7.24937 37.0663 9.53884C34.3306 9.6052 31.5936 9.6052 28.8579 9.53884C28.8656 7.24937 28.9243 4.96247 29.0442 2.67811C28.2393 2.87461 27.3989 2.87461 26.594 2.67811C26.7982 7.5765 26.7982 12.4813 26.594 17.3797C27.3903 17.1882 28.2045 17.1806 29.0417 17.3797L29.0366 17.3771L29.0442 17.3797C28.9261 15.1023 28.864 12.8224 28.8579 10.5419C31.594 10.5036 34.3302 10.5011 37.0663 10.5394C37.0603 12.8206 36.9981 15.1014 36.88 17.3797L36.8876 17.3771L36.8825 17.3797C37.7197 17.1806 38.5339 17.1882 39.3302 17.3797C39.1261 12.4813 39.1261 7.5765 39.3302 2.67811C38.5253 2.87461 37.6849 2.87461 36.88 2.67811Z" fill="white"/>
</svg>
